<mxfile host="app.diagrams.net" agent="Mozilla/5.0 (Windows NT 10.0; Win64; x64) AppleWebKit/537.36 (KHTML, like Gecko) Chrome/134.0.0.0 Safari/537.36" version="26.1.3">
  <diagram name="Page-1" id="jZtgPbtF2fRXzPL7g2iq">
    <mxGraphModel dx="1050" dy="565" grid="1" gridSize="10" guides="1" tooltips="1" connect="1" arrows="1" fold="1" page="1" pageScale="1" pageWidth="850" pageHeight="1100" math="0" shadow="0">
      <root>
        <mxCell id="0" />
        <mxCell id="1" parent="0" />
        <UserObject label="" plantUmlData="{&#xa;  &quot;data&quot;: &quot;@startuml\n\n&#39; Define the main system\npackage \&quot;ThingsBoard Dashboarding System\&quot; {\n    [Dashboard Service] --&gt; [Widget Library]\n    [Dashboard Service] --&gt; [API Gateway]\n    [Dashboard Service] --&gt; [Database]\n    [Dashboard Service] --&gt; [Cache]\n    \n    [Widget Library] --&gt; [Visualization Engine]\n    [Widget Library] --&gt; [User Customization]\n    \n    [API Gateway] --&gt; [REST API]\n    [API Gateway] --&gt; [WebSockets]\n    [API Gateway] --&gt; [GraphQL API]\n    \n    [Database] --&gt; [PostgreSQL]\n    [Database] --&gt; [Cassandra]\n    \n    [Cache] --&gt; [Redis]\n    \n    [Security] --&gt; [RBAC]\n    [Security] --&gt; [Multi-Tenancy]\n    [Security] --&gt; [Authentication &amp; Authorization]\n}\n\n@enduml&quot;,&#xa;  &quot;format&quot;: &quot;svg&quot;&#xa;}" id="P3c6qDh03aw6tttAvGT_-2">
          <mxCell style="shape=image;noLabel=1;verticalAlign=top;aspect=fixed;imageAspect=0;image=data:image/svg+xml,PD94bWwgdmVyc2lvbj0iMS4wIiBlbmNvZGluZz0idXMtYXNjaWkiIHN0YW5kYWxvbmU9Im5vIj8+PHN2ZyB4bWxucz0iaHR0cDovL3d3dy53My5vcmcvMjAwMC9zdmciIHhtbG5zOnhsaW5rPSJodHRwOi8vd3d3LnczLm9yZy8xOTk5L3hsaW5rIiBjb250ZW50U3R5bGVUeXBlPSJ0ZXh0L2NzcyIgaGVpZ2h0PSIzMTdweCIgcHJlc2VydmVBc3BlY3RSYXRpbz0ibm9uZSIgc3R5bGU9IndpZHRoOjEyNTBweDtoZWlnaHQ6MzE3cHg7YmFja2dyb3VuZDojRkZGRkZGOyIgdmVyc2lvbj0iMS4xIiB2aWV3Qm94PSIwIDAgMTI1MCAzMTciIHdpZHRoPSIxMjUwcHgiIHpvb21BbmRQYW49Im1hZ25pZnkiPjxkZWZzLz48Zz48IS0tY2x1c3RlciBUaGluZ3NCb2FyZCBEYXNoYm9hcmRpbmcgU3lzdGVtLS0+PGcgaWQ9ImNsdXN0ZXJfVGhpbmdzQm9hcmQgRGFzaGJvYXJkaW5nIFN5c3RlbSI+PHBhdGggZD0iTTguNSw2IEwyMjcuNSw2IEEzLjc1LDMuNzUgMCAwIDEgMjMwLDguNSBMMjM3LDI2Ljk4NDQgTDEyNDAuNSwyNi45ODQ0IEEyLjUsMi41IDAgMCAxIDEyNDMsMjkuNDg0NCBMMTI0MywzMDcuNSBBMi41LDIuNSAwIDAgMSAxMjQwLjUsMzEwIEw4LjUsMzEwIEEyLjUsMi41IDAgMCAxIDYsMzA3LjUgTDYsOC41IEEyLjUsMi41IDAgMCAxIDguNSw2ICIgZmlsbD0ibm9uZSIgc3R5bGU9InN0cm9rZTojMDAwMDAwO3N0cm9rZS13aWR0aDoxLjU7Ii8+PGxpbmUgc3R5bGU9InN0cm9rZTojMDAwMDAwO3N0cm9rZS13aWR0aDoxLjU7IiB4MT0iNiIgeDI9IjIzNyIgeTE9IjI2Ljk4NDQiIHkyPSIyNi45ODQ0Ii8+PHRleHQgZmlsbD0iIzAwMDAwMCIgZm9udC1mYW1pbHk9InNhbnMtc2VyaWYiIGZvbnQtc2l6ZT0iMTQiIGZvbnQtd2VpZ2h0PSJib2xkIiBsZW5ndGhBZGp1c3Q9InNwYWNpbmciIHRleHRMZW5ndGg9IjIxOCIgeD0iMTAiIHk9IjIxLjIzNDQiPlRoaW5nc0JvYXJkIERhc2hib2FyZGluZyBTeXN0ZW08L3RleHQ+PC9nPjwhLS1lbnRpdHkgRGFzaGJvYXJkIFNlcnZpY2UtLT48ZyBpZD0iZWxlbV9EYXNoYm9hcmQgU2VydmljZSI+PHJlY3QgZmlsbD0iI0YxRjFGMSIgaGVpZ2h0PSI0NC45ODQ0IiByeD0iMi41IiByeT0iMi41IiBzdHlsZT0ic3Ryb2tlOiMxODE4MTg7c3Ryb2tlLXdpZHRoOjAuNTsiIHdpZHRoPSIxNTkiIHg9IjgwMC41IiB5PSIzOSIvPjxyZWN0IGZpbGw9IiNGMUYxRjEiIGhlaWdodD0iMTAiIHN0eWxlPSJzdHJva2U6IzE4MTgxODtzdHJva2Utd2lkdGg6MC41OyIgd2lkdGg9IjE1IiB4PSI5MzkuNSIgeT0iNDQiLz48cmVjdCBmaWxsPSIjRjFGMUYxIiBoZWlnaHQ9IjIiIHN0eWxlPSJzdHJva2U6IzE4MTgxODtzdHJva2Utd2lkdGg6MC41OyIgd2lkdGg9IjQiIHg9IjkzNy41IiB5PSI0NiIvPjxyZWN0IGZpbGw9IiNGMUYxRjEiIGhlaWdodD0iMiIgc3R5bGU9InN0cm9rZTojMTgxODE4O3N0cm9rZS13aWR0aDowLjU7IiB3aWR0aD0iNCIgeD0iOTM3LjUiIHk9IjUwIi8+PHRleHQgZmlsbD0iIzAwMDAwMCIgZm9udC1mYW1pbHk9InNhbnMtc2VyaWYiIGZvbnQtc2l6ZT0iMTQiIGxlbmd0aEFkanVzdD0ic3BhY2luZyIgdGV4dExlbmd0aD0iMTE5IiB4PSI4MTUuNSIgeT0iNzIuMjM0NCI+RGFzaGJvYXJkIFNlcnZpY2U8L3RleHQ+PC9nPjwhLS1lbnRpdHkgV2lkZ2V0IExpYnJhcnktLT48ZyBpZD0iZWxlbV9XaWRnZXQgTGlicmFyeSI+PHJlY3QgZmlsbD0iI0YxRjFGMSIgaGVpZ2h0PSI0NC45ODQ0IiByeD0iMi41IiByeT0iMi41IiBzdHlsZT0ic3Ryb2tlOiMxODE4MTg7c3Ryb2tlLXdpZHRoOjAuNTsiIHdpZHRoPSIxMzgiIHg9IjU3NyIgeT0iMTQ0Ii8+PHJlY3QgZmlsbD0iI0YxRjFGMSIgaGVpZ2h0PSIxMCIgc3R5bGU9InN0cm9rZTojMTgxODE4O3N0cm9rZS13aWR0aDowLjU7IiB3aWR0aD0iMTUiIHg9IjY5NSIgeT0iMTQ5Ii8+PHJlY3QgZmlsbD0iI0YxRjFGMSIgaGVpZ2h0PSIyIiBzdHlsZT0ic3Ryb2tlOiMxODE4MTg7c3Ryb2tlLXdpZHRoOjAuNTsiIHdpZHRoPSI0IiB4PSI2OTMiIHk9IjE1MSIvPjxyZWN0IGZpbGw9IiNGMUYxRjEiIGhlaWdodD0iMiIgc3R5bGU9InN0cm9rZTojMTgxODE4O3N0cm9rZS13aWR0aDowLjU7IiB3aWR0aD0iNCIgeD0iNjkzIiB5PSIxNTUiLz48dGV4dCBmaWxsPSIjMDAwMDAwIiBmb250LWZhbWlseT0ic2Fucy1zZXJpZiIgZm9udC1zaXplPSIxNCIgbGVuZ3RoQWRqdXN0PSJzcGFjaW5nIiB0ZXh0TGVuZ3RoPSI5OCIgeD0iNTkyIiB5PSIxNzcuMjM0NCI+V2lkZ2V0IExpYnJhcnk8L3RleHQ+PC9nPjwhLS1lbnRpdHkgQVBJIEdhdGV3YXktLT48ZyBpZD0iZWxlbV9BUEkgR2F0ZXdheSI+PHJlY3QgZmlsbD0iI0YxRjFGMSIgaGVpZ2h0PSI0NC45ODQ0IiByeD0iMi41IiByeT0iMi41IiBzdHlsZT0ic3Ryb2tlOiMxODE4MTg7c3Ryb2tlLXdpZHRoOjAuNTsiIHdpZHRoPSIxMTgiIHg9Ijc1MCIgeT0iMTQ0Ii8+PHJlY3QgZmlsbD0iI0YxRjFGMSIgaGVpZ2h0PSIxMCIgc3R5bGU9InN0cm9rZTojMTgxODE4O3N0cm9rZS13aWR0aDowLjU7IiB3aWR0aD0iMTUiIHg9Ijg0OCIgeT0iMTQ5Ii8+PHJlY3QgZmlsbD0iI0YxRjFGMSIgaGVpZ2h0PSIyIiBzdHlsZT0ic3Ryb2tlOiMxODE4MTg7c3Ryb2tlLXdpZHRoOjAuNTsiIHdpZHRoPSI0IiB4PSI4NDYiIHk9IjE1MSIvPjxyZWN0IGZpbGw9IiNGMUYxRjEiIGhlaWdodD0iMiIgc3R5bGU9InN0cm9rZTojMTgxODE4O3N0cm9rZS13aWR0aDowLjU7IiB3aWR0aD0iNCIgeD0iODQ2IiB5PSIxNTUiLz48dGV4dCBmaWxsPSIjMDAwMDAwIiBmb250LWZhbWlseT0ic2Fucy1zZXJpZiIgZm9udC1zaXplPSIxNCIgbGVuZ3RoQWRqdXN0PSJzcGFjaW5nIiB0ZXh0TGVuZ3RoPSI3OCIgeD0iNzY1IiB5PSIxNzcuMjM0NCI+QVBJIEdhdGV3YXk8L3RleHQ+PC9nPjwhLS1lbnRpdHkgRGF0YWJhc2UtLT48ZyBpZD0iZWxlbV9EYXRhYmFzZSI+PHJlY3QgZmlsbD0iI0YxRjFGMSIgaGVpZ2h0PSI0NC45ODQ0IiByeD0iMi41IiByeT0iMi41IiBzdHlsZT0ic3Ryb2tlOiMxODE4MTg7c3Ryb2tlLXdpZHRoOjAuNTsiIHdpZHRoPSI5NiIgeD0iOTAzIiB5PSIxNDQiLz48cmVjdCBmaWxsPSIjRjFGMUYxIiBoZWlnaHQ9IjEwIiBzdHlsZT0ic3Ryb2tlOiMxODE4MTg7c3Ryb2tlLXdpZHRoOjAuNTsiIHdpZHRoPSIxNSIgeD0iOTc5IiB5PSIxNDkiLz48cmVjdCBmaWxsPSIjRjFGMUYxIiBoZWlnaHQ9IjIiIHN0eWxlPSJzdHJva2U6IzE4MTgxODtzdHJva2Utd2lkdGg6MC41OyIgd2lkdGg9IjQiIHg9Ijk3NyIgeT0iMTUxIi8+PHJlY3QgZmlsbD0iI0YxRjFGMSIgaGVpZ2h0PSIyIiBzdHlsZT0ic3Ryb2tlOiMxODE4MTg7c3Ryb2tlLXdpZHRoOjAuNTsiIHdpZHRoPSI0IiB4PSI5NzciIHk9IjE1NSIvPjx0ZXh0IGZpbGw9IiMwMDAwMDAiIGZvbnQtZmFtaWx5PSJzYW5zLXNlcmlmIiBmb250LXNpemU9IjE0IiBsZW5ndGhBZGp1c3Q9InNwYWNpbmciIHRleHRMZW5ndGg9IjU2IiB4PSI5MTgiIHk9IjE3Ny4yMzQ0Ij5EYXRhYmFzZTwvdGV4dD48L2c+PCEtLWVudGl0eSBDYWNoZS0tPjxnIGlkPSJlbGVtX0NhY2hlIj48cmVjdCBmaWxsPSIjRjFGMUYxIiBoZWlnaHQ9IjQ0Ljk4NDQiIHJ4PSIyLjUiIHJ5PSIyLjUiIHN0eWxlPSJzdHJva2U6IzE4MTgxODtzdHJva2Utd2lkdGg6MC41OyIgd2lkdGg9Ijc1IiB4PSIxMDkzLjUiIHk9IjE0NCIvPjxyZWN0IGZpbGw9IiNGMUYxRjEiIGhlaWdodD0iMTAiIHN0eWxlPSJzdHJva2U6IzE4MTgxODtzdHJva2Utd2lkdGg6MC41OyIgd2lkdGg9IjE1IiB4PSIxMTQ4LjUiIHk9IjE0OSIvPjxyZWN0IGZpbGw9IiNGMUYxRjEiIGhlaWdodD0iMiIgc3R5bGU9InN0cm9rZTojMTgxODE4O3N0cm9rZS13aWR0aDowLjU7IiB3aWR0aD0iNCIgeD0iMTE0Ni41IiB5PSIxNTEiLz48cmVjdCBmaWxsPSIjRjFGMUYxIiBoZWlnaHQ9IjIiIHN0eWxlPSJzdHJva2U6IzE4MTgxODtzdHJva2Utd2lkdGg6MC41OyIgd2lkdGg9IjQiIHg9IjExNDYuNSIgeT0iMTU1Ii8+PHRleHQgZmlsbD0iIzAwMDAwMCIgZm9udC1mYW1pbHk9InNhbnMtc2VyaWYiIGZvbnQtc2l6ZT0iMTQiIGxlbmd0aEFkanVzdD0ic3BhY2luZyIgdGV4dExlbmd0aD0iMzUiIHg9IjExMDguNSIgeT0iMTc3LjIzNDQiPkNhY2hlPC90ZXh0PjwvZz48IS0tZW50aXR5IFZpc3VhbGl6YXRpb24gRW5naW5lLS0+PGcgaWQ9ImVsZW1fVmlzdWFsaXphdGlvbiBFbmdpbmUiPjxyZWN0IGZpbGw9IiNGMUYxRjEiIGhlaWdodD0iNDQuOTg0NCIgcng9IjIuNSIgcnk9IjIuNSIgc3R5bGU9InN0cm9rZTojMTgxODE4O3N0cm9rZS13aWR0aDowLjU7IiB3aWR0aD0iMTgwIiB4PSIyMiIgeT0iMjQ5Ii8+PHJlY3QgZmlsbD0iI0YxRjFGMSIgaGVpZ2h0PSIxMCIgc3R5bGU9InN0cm9rZTojMTgxODE4O3N0cm9rZS13aWR0aDowLjU7IiB3aWR0aD0iMTUiIHg9IjE4MiIgeT0iMjU0Ii8+PHJlY3QgZmlsbD0iI0YxRjFGMSIgaGVpZ2h0PSIyIiBzdHlsZT0ic3Ryb2tlOiMxODE4MTg7c3Ryb2tlLXdpZHRoOjAuNTsiIHdpZHRoPSI0IiB4PSIxODAiIHk9IjI1NiIvPjxyZWN0IGZpbGw9IiNGMUYxRjEiIGhlaWdodD0iMiIgc3R5bGU9InN0cm9rZTojMTgxODE4O3N0cm9rZS13aWR0aDowLjU7IiB3aWR0aD0iNCIgeD0iMTgwIiB5PSIyNjAiLz48dGV4dCBmaWxsPSIjMDAwMDAwIiBmb250LWZhbWlseT0ic2Fucy1zZXJpZiIgZm9udC1zaXplPSIxNCIgbGVuZ3RoQWRqdXN0PSJzcGFjaW5nIiB0ZXh0TGVuZ3RoPSIxNDAiIHg9IjM3IiB5PSIyODIuMjM0NCI+VmlzdWFsaXphdGlvbiBFbmdpbmU8L3RleHQ+PC9nPjwhLS1lbnRpdHkgVXNlciBDdXN0b21pemF0aW9uLS0+PGcgaWQ9ImVsZW1fVXNlciBDdXN0b21pemF0aW9uIj48cmVjdCBmaWxsPSIjRjFGMUYxIiBoZWlnaHQ9IjQ0Ljk4NDQiIHJ4PSIyLjUiIHJ5PSIyLjUiIHN0eWxlPSJzdHJva2U6IzE4MTgxODtzdHJva2Utd2lkdGg6MC41OyIgd2lkdGg9IjE2NyIgeD0iMjM3LjUiIHk9IjI0OSIvPjxyZWN0IGZpbGw9IiNGMUYxRjEiIGhlaWdodD0iMTAiIHN0eWxlPSJzdHJva2U6IzE4MTgxODtzdHJva2Utd2lkdGg6MC41OyIgd2lkdGg9IjE1IiB4PSIzODQuNSIgeT0iMjU0Ii8+PHJlY3QgZmlsbD0iI0YxRjFGMSIgaGVpZ2h0PSIyIiBzdHlsZT0ic3Ryb2tlOiMxODE4MTg7c3Ryb2tlLXdpZHRoOjAuNTsiIHdpZHRoPSI0IiB4PSIzODIuNSIgeT0iMjU2Ii8+PHJlY3QgZmlsbD0iI0YxRjFGMSIgaGVpZ2h0PSIyIiBzdHlsZT0ic3Ryb2tlOiMxODE4MTg7c3Ryb2tlLXdpZHRoOjAuNTsiIHdpZHRoPSI0IiB4PSIzODIuNSIgeT0iMjYwIi8+PHRleHQgZmlsbD0iIzAwMDAwMCIgZm9udC1mYW1pbHk9InNhbnMtc2VyaWYiIGZvbnQtc2l6ZT0iMTQiIGxlbmd0aEFkanVzdD0ic3BhY2luZyIgdGV4dExlbmd0aD0iMTI3IiB4PSIyNTIuNSIgeT0iMjgyLjIzNDQiPlVzZXIgQ3VzdG9taXphdGlvbjwvdGV4dD48L2c+PCEtLWVudGl0eSBSRVNUIEFQSS0tPjxnIGlkPSJlbGVtX1JFU1QgQVBJIj48cmVjdCBmaWxsPSIjRjFGMUYxIiBoZWlnaHQ9IjQ0Ljk4NDQiIHJ4PSIyLjUiIHJ5PSIyLjUiIHN0eWxlPSJzdHJva2U6IzE4MTgxODtzdHJva2Utd2lkdGg6MC41OyIgd2lkdGg9Ijk2IiB4PSI0NDAiIHk9IjI0OSIvPjxyZWN0IGZpbGw9IiNGMUYxRjEiIGhlaWdodD0iMTAiIHN0eWxlPSJzdHJva2U6IzE4MTgxODtzdHJva2Utd2lkdGg6MC41OyIgd2lkdGg9IjE1IiB4PSI1MTYiIHk9IjI1NCIvPjxyZWN0IGZpbGw9IiNGMUYxRjEiIGhlaWdodD0iMiIgc3R5bGU9InN0cm9rZTojMTgxODE4O3N0cm9rZS13aWR0aDowLjU7IiB3aWR0aD0iNCIgeD0iNTE0IiB5PSIyNTYiLz48cmVjdCBmaWxsPSIjRjFGMUYxIiBoZWlnaHQ9IjIiIHN0eWxlPSJzdHJva2U6IzE4MTgxODtzdHJva2Utd2lkdGg6MC41OyIgd2lkdGg9IjQiIHg9IjUxNCIgeT0iMjYwIi8+PHRleHQgZmlsbD0iIzAwMDAwMCIgZm9udC1mYW1pbHk9InNhbnMtc2VyaWYiIGZvbnQtc2l6ZT0iMTQiIGxlbmd0aEFkanVzdD0ic3BhY2luZyIgdGV4dExlbmd0aD0iNTYiIHg9IjQ1NSIgeT0iMjgyLjIzNDQiPlJFU1QgQVBJPC90ZXh0PjwvZz48IS0tZW50aXR5IFdlYlNvY2tldHMtLT48ZyBpZD0iZWxlbV9XZWJTb2NrZXRzIj48cmVjdCBmaWxsPSIjRjFGMUYxIiBoZWlnaHQ9IjQ0Ljk4NDQiIHJ4PSIyLjUiIHJ5PSIyLjUiIHN0eWxlPSJzdHJva2U6IzE4MTgxODtzdHJva2Utd2lkdGg6MC41OyIgd2lkdGg9IjExMCIgeD0iNTcxIiB5PSIyNDkiLz48cmVjdCBmaWxsPSIjRjFGMUYxIiBoZWlnaHQ9IjEwIiBzdHlsZT0ic3Ryb2tlOiMxODE4MTg7c3Ryb2tlLXdpZHRoOjAuNTsiIHdpZHRoPSIxNSIgeD0iNjYxIiB5PSIyNTQiLz48cmVjdCBmaWxsPSIjRjFGMUYxIiBoZWlnaHQ9IjIiIHN0eWxlPSJzdHJva2U6IzE4MTgxODtzdHJva2Utd2lkdGg6MC41OyIgd2lkdGg9IjQiIHg9IjY1OSIgeT0iMjU2Ii8+PHJlY3QgZmlsbD0iI0YxRjFGMSIgaGVpZ2h0PSIyIiBzdHlsZT0ic3Ryb2tlOiMxODE4MTg7c3Ryb2tlLXdpZHRoOjAuNTsiIHdpZHRoPSI0IiB4PSI2NTkiIHk9IjI2MCIvPjx0ZXh0IGZpbGw9IiMwMDAwMDAiIGZvbnQtZmFtaWx5PSJzYW5zLXNlcmlmIiBmb250LXNpemU9IjE0IiBsZW5ndGhBZGp1c3Q9InNwYWNpbmciIHRleHRMZW5ndGg9IjcwIiB4PSI1ODYiIHk9IjI4Mi4yMzQ0Ij5XZWJTb2NrZXRzPC90ZXh0PjwvZz48IS0tZW50aXR5IEdyYXBoUUwgQVBJLS0+PGcgaWQ9ImVsZW1fR3JhcGhRTCBBUEkiPjxyZWN0IGZpbGw9IiNGMUYxRjEiIGhlaWdodD0iNDQuOTg0NCIgcng9IjIuNSIgcnk9IjIuNSIgc3R5bGU9InN0cm9rZTojMTgxODE4O3N0cm9rZS13aWR0aDowLjU7IiB3aWR0aD0iMTE3IiB4PSI3MTYuNSIgeT0iMjQ5Ii8+PHJlY3QgZmlsbD0iI0YxRjFGMSIgaGVpZ2h0PSIxMCIgc3R5bGU9InN0cm9rZTojMTgxODE4O3N0cm9rZS13aWR0aDowLjU7IiB3aWR0aD0iMTUiIHg9IjgxMy41IiB5PSIyNTQiLz48cmVjdCBmaWxsPSIjRjFGMUYxIiBoZWlnaHQ9IjIiIHN0eWxlPSJzdHJva2U6IzE4MTgxODtzdHJva2Utd2lkdGg6MC41OyIgd2lkdGg9IjQiIHg9IjgxMS41IiB5PSIyNTYiLz48cmVjdCBmaWxsPSIjRjFGMUYxIiBoZWlnaHQ9IjIiIHN0eWxlPSJzdHJva2U6IzE4MTgxODtzdHJva2Utd2lkdGg6MC41OyIgd2lkdGg9IjQiIHg9IjgxMS41IiB5PSIyNjAiLz48dGV4dCBmaWxsPSIjMDAwMDAwIiBmb250LWZhbWlseT0ic2Fucy1zZXJpZiIgZm9udC1zaXplPSIxNCIgbGVuZ3RoQWRqdXN0PSJzcGFjaW5nIiB0ZXh0TGVuZ3RoPSI3NyIgeD0iNzMxLjUiIHk9IjI4Mi4yMzQ0Ij5HcmFwaFFMIEFQSTwvdGV4dD48L2c+PCEtLWVudGl0eSBQb3N0Z3JlU1FMLS0+PGcgaWQ9ImVsZW1fUG9zdGdyZVNRTCI+PHJlY3QgZmlsbD0iI0YxRjFGMSIgaGVpZ2h0PSI0NC45ODQ0IiByeD0iMi41IiByeT0iMi41IiBzdHlsZT0ic3Ryb2tlOiMxODE4MTg7c3Ryb2tlLXdpZHRoOjAuNTsiIHdpZHRoPSIxMTAiIHg9Ijg2OSIgeT0iMjQ5Ii8+PHJlY3QgZmlsbD0iI0YxRjFGMSIgaGVpZ2h0PSIxMCIgc3R5bGU9InN0cm9rZTojMTgxODE4O3N0cm9rZS13aWR0aDowLjU7IiB3aWR0aD0iMTUiIHg9Ijk1OSIgeT0iMjU0Ii8+PHJlY3QgZmlsbD0iI0YxRjFGMSIgaGVpZ2h0PSIyIiBzdHlsZT0ic3Ryb2tlOiMxODE4MTg7c3Ryb2tlLXdpZHRoOjAuNTsiIHdpZHRoPSI0IiB4PSI5NTciIHk9IjI1NiIvPjxyZWN0IGZpbGw9IiNGMUYxRjEiIGhlaWdodD0iMiIgc3R5bGU9InN0cm9rZTojMTgxODE4O3N0cm9rZS13aWR0aDowLjU7IiB3aWR0aD0iNCIgeD0iOTU3IiB5PSIyNjAiLz48dGV4dCBmaWxsPSIjMDAwMDAwIiBmb250LWZhbWlseT0ic2Fucy1zZXJpZiIgZm9udC1zaXplPSIxNCIgbGVuZ3RoQWRqdXN0PSJzcGFjaW5nIiB0ZXh0TGVuZ3RoPSI3MCIgeD0iODg0IiB5PSIyODIuMjM0NCI+UG9zdGdyZVNRTDwvdGV4dD48L2c+PCEtLWVudGl0eSBDYXNzYW5kcmEtLT48ZyBpZD0iZWxlbV9DYXNzYW5kcmEiPjxyZWN0IGZpbGw9IiNGMUYxRjEiIGhlaWdodD0iNDQuOTg0NCIgcng9IjIuNSIgcnk9IjIuNSIgc3R5bGU9InN0cm9rZTojMTgxODE4O3N0cm9rZS13aWR0aDowLjU7IiB3aWR0aD0iMTAzIiB4PSIxMDE0LjUiIHk9IjI0OSIvPjxyZWN0IGZpbGw9IiNGMUYxRjEiIGhlaWdodD0iMTAiIHN0eWxlPSJzdHJva2U6IzE4MTgxODtzdHJva2Utd2lkdGg6MC41OyIgd2lkdGg9IjE1IiB4PSIxMDk3LjUiIHk9IjI1NCIvPjxyZWN0IGZpbGw9IiNGMUYxRjEiIGhlaWdodD0iMiIgc3R5bGU9InN0cm9rZTojMTgxODE4O3N0cm9rZS13aWR0aDowLjU7IiB3aWR0aD0iNCIgeD0iMTA5NS41IiB5PSIyNTYiLz48cmVjdCBmaWxsPSIjRjFGMUYxIiBoZWlnaHQ9IjIiIHN0eWxlPSJzdHJva2U6IzE4MTgxODtzdHJva2Utd2lkdGg6MC41OyIgd2lkdGg9IjQiIHg9IjEwOTUuNSIgeT0iMjYwIi8+PHRleHQgZmlsbD0iIzAwMDAwMCIgZm9udC1mYW1pbHk9InNhbnMtc2VyaWYiIGZvbnQtc2l6ZT0iMTQiIGxlbmd0aEFkanVzdD0ic3BhY2luZyIgdGV4dExlbmd0aD0iNjMiIHg9IjEwMjkuNSIgeT0iMjgyLjIzNDQiPkNhc3NhbmRyYTwvdGV4dD48L2c+PCEtLWVudGl0eSBSZWRpcy0tPjxnIGlkPSJlbGVtX1JlZGlzIj48cmVjdCBmaWxsPSIjRjFGMUYxIiBoZWlnaHQ9IjQ0Ljk4NDQiIHJ4PSIyLjUiIHJ5PSIyLjUiIHN0eWxlPSJzdHJva2U6IzE4MTgxODtzdHJva2Utd2lkdGg6MC41OyIgd2lkdGg9Ijc1IiB4PSIxMTUyLjUiIHk9IjI0OSIvPjxyZWN0IGZpbGw9IiNGMUYxRjEiIGhlaWdodD0iMTAiIHN0eWxlPSJzdHJva2U6IzE4MTgxODtzdHJva2Utd2lkdGg6MC41OyIgd2lkdGg9IjE1IiB4PSIxMjA3LjUiIHk9IjI1NCIvPjxyZWN0IGZpbGw9IiNGMUYxRjEiIGhlaWdodD0iMiIgc3R5bGU9InN0cm9rZTojMTgxODE4O3N0cm9rZS13aWR0aDowLjU7IiB3aWR0aD0iNCIgeD0iMTIwNS41IiB5PSIyNTYiLz48cmVjdCBmaWxsPSIjRjFGMUYxIiBoZWlnaHQ9IjIiIHN0eWxlPSJzdHJva2U6IzE4MTgxODtzdHJva2Utd2lkdGg6MC41OyIgd2lkdGg9IjQiIHg9IjEyMDUuNSIgeT0iMjYwIi8+PHRleHQgZmlsbD0iIzAwMDAwMCIgZm9udC1mYW1pbHk9InNhbnMtc2VyaWYiIGZvbnQtc2l6ZT0iMTQiIGxlbmd0aEFkanVzdD0ic3BhY2luZyIgdGV4dExlbmd0aD0iMzUiIHg9IjExNjcuNSIgeT0iMjgyLjIzNDQiPlJlZGlzPC90ZXh0PjwvZz48IS0tZW50aXR5IFNlY3VyaXR5LS0+PGcgaWQ9ImVsZW1fU2VjdXJpdHkiPjxyZWN0IGZpbGw9IiNGMUYxRjEiIGhlaWdodD0iNDQuOTg0NCIgcng9IjIuNSIgcnk9IjIuNSIgc3R5bGU9InN0cm9rZTojMTgxODE4O3N0cm9rZS13aWR0aDowLjU7IiB3aWR0aD0iOTYiIHg9IjE0MyIgeT0iMzkiLz48cmVjdCBmaWxsPSIjRjFGMUYxIiBoZWlnaHQ9IjEwIiBzdHlsZT0ic3Ryb2tlOiMxODE4MTg7c3Ryb2tlLXdpZHRoOjAuNTsiIHdpZHRoPSIxNSIgeD0iMjE5IiB5PSI0NCIvPjxyZWN0IGZpbGw9IiNGMUYxRjEiIGhlaWdodD0iMiIgc3R5bGU9InN0cm9rZTojMTgxODE4O3N0cm9rZS13aWR0aDowLjU7IiB3aWR0aD0iNCIgeD0iMjE3IiB5PSI0NiIvPjxyZWN0IGZpbGw9IiNGMUYxRjEiIGhlaWdodD0iMiIgc3R5bGU9InN0cm9rZTojMTgxODE4O3N0cm9rZS13aWR0aDowLjU7IiB3aWR0aD0iNCIgeD0iMjE3IiB5PSI1MCIvPjx0ZXh0IGZpbGw9IiMwMDAwMDAiIGZvbnQtZmFtaWx5PSJzYW5zLXNlcmlmIiBmb250LXNpemU9IjE0IiBsZW5ndGhBZGp1c3Q9InNwYWNpbmciIHRleHRMZW5ndGg9IjU2IiB4PSIxNTgiIHk9IjcyLjIzNDQiPlNlY3VyaXR5PC90ZXh0PjwvZz48IS0tZW50aXR5IFJCQUMtLT48ZyBpZD0iZWxlbV9SQkFDIj48cmVjdCBmaWxsPSIjRjFGMUYxIiBoZWlnaHQ9IjQ0Ljk4NDQiIHJ4PSIyLjUiIHJ5PSIyLjUiIHN0eWxlPSJzdHJva2U6IzE4MTgxODtzdHJva2Utd2lkdGg6MC41OyIgd2lkdGg9IjY4IiB4PSIyMiIgeT0iMTQ0Ii8+PHJlY3QgZmlsbD0iI0YxRjFGMSIgaGVpZ2h0PSIxMCIgc3R5bGU9InN0cm9rZTojMTgxODE4O3N0cm9rZS13aWR0aDowLjU7IiB3aWR0aD0iMTUiIHg9IjcwIiB5PSIxNDkiLz48cmVjdCBmaWxsPSIjRjFGMUYxIiBoZWlnaHQ9IjIiIHN0eWxlPSJzdHJva2U6IzE4MTgxODtzdHJva2Utd2lkdGg6MC41OyIgd2lkdGg9IjQiIHg9IjY4IiB5PSIxNTEiLz48cmVjdCBmaWxsPSIjRjFGMUYxIiBoZWlnaHQ9IjIiIHN0eWxlPSJzdHJva2U6IzE4MTgxODtzdHJva2Utd2lkdGg6MC41OyIgd2lkdGg9IjQiIHg9IjY4IiB5PSIxNTUiLz48dGV4dCBmaWxsPSIjMDAwMDAwIiBmb250LWZhbWlseT0ic2Fucy1zZXJpZiIgZm9udC1zaXplPSIxNCIgbGVuZ3RoQWRqdXN0PSJzcGFjaW5nIiB0ZXh0TGVuZ3RoPSIyOCIgeD0iMzciIHk9IjE3Ny4yMzQ0Ij5SQkFDPC90ZXh0PjwvZz48IS0tZW50aXR5IE11bHRpLVRlbmFuY3ktLT48ZyBpZD0iZWxlbV9NdWx0aS1UZW5hbmN5Ij48cmVjdCBmaWxsPSIjRjFGMUYxIiBoZWlnaHQ9IjQ0Ljk4NDQiIHJ4PSIyLjUiIHJ5PSIyLjUiIHN0eWxlPSJzdHJva2U6IzE4MTgxODtzdHJva2Utd2lkdGg6MC41OyIgd2lkdGg9IjEzMSIgeD0iMTI1LjUiIHk9IjE0NCIvPjxyZWN0IGZpbGw9IiNGMUYxRjEiIGhlaWdodD0iMTAiIHN0eWxlPSJzdHJva2U6IzE4MTgxODtzdHJva2Utd2lkdGg6MC41OyIgd2lkdGg9IjE1IiB4PSIyMzYuNSIgeT0iMTQ5Ii8+PHJlY3QgZmlsbD0iI0YxRjFGMSIgaGVpZ2h0PSIyIiBzdHlsZT0ic3Ryb2tlOiMxODE4MTg7c3Ryb2tlLXdpZHRoOjAuNTsiIHdpZHRoPSI0IiB4PSIyMzQuNSIgeT0iMTUxIi8+PHJlY3QgZmlsbD0iI0YxRjFGMSIgaGVpZ2h0PSIyIiBzdHlsZT0ic3Ryb2tlOiMxODE4MTg7c3Ryb2tlLXdpZHRoOjAuNTsiIHdpZHRoPSI0IiB4PSIyMzQuNSIgeT0iMTU1Ii8+PHRleHQgZmlsbD0iIzAwMDAwMCIgZm9udC1mYW1pbHk9InNhbnMtc2VyaWYiIGZvbnQtc2l6ZT0iMTQiIGxlbmd0aEFkanVzdD0ic3BhY2luZyIgdGV4dExlbmd0aD0iOTEiIHg9IjE0MC41IiB5PSIxNzcuMjM0NCI+TXVsdGktVGVuYW5jeTwvdGV4dD48L2c+PCEtLWVudGl0eSBBdXRoZW50aWNhdGlvbiAmIEF1dGhvcml6YXRpb24tLT48ZyBpZD0iZWxlbV9BdXRoZW50aWNhdGlvbiAmYW1wOyBBdXRob3JpemF0aW9uIj48cmVjdCBmaWxsPSIjRjFGMUYxIiBoZWlnaHQ9IjQ0Ljk4NDQiIHJ4PSIyLjUiIHJ5PSIyLjUiIHN0eWxlPSJzdHJva2U6IzE4MTgxODtzdHJva2Utd2lkdGg6MC41OyIgd2lkdGg9IjI1MCIgeD0iMjkyIiB5PSIxNDQiLz48cmVjdCBmaWxsPSIjRjFGMUYxIiBoZWlnaHQ9IjEwIiBzdHlsZT0ic3Ryb2tlOiMxODE4MTg7c3Ryb2tlLXdpZHRoOjAuNTsiIHdpZHRoPSIxNSIgeD0iNTIyIiB5PSIxNDkiLz48cmVjdCBmaWxsPSIjRjFGMUYxIiBoZWlnaHQ9IjIiIHN0eWxlPSJzdHJva2U6IzE4MTgxODtzdHJva2Utd2lkdGg6MC41OyIgd2lkdGg9IjQiIHg9IjUyMCIgeT0iMTUxIi8+PHJlY3QgZmlsbD0iI0YxRjFGMSIgaGVpZ2h0PSIyIiBzdHlsZT0ic3Ryb2tlOiMxODE4MTg7c3Ryb2tlLXdpZHRoOjAuNTsiIHdpZHRoPSI0IiB4PSI1MjAiIHk9IjE1NSIvPjx0ZXh0IGZpbGw9IiMwMDAwMDAiIGZvbnQtZmFtaWx5PSJzYW5zLXNlcmlmIiBmb250LXNpemU9IjE0IiBsZW5ndGhBZGp1c3Q9InNwYWNpbmciIHRleHRMZW5ndGg9IjIxMCIgeD0iMzA3IiB5PSIxNzcuMjM0NCI+QXV0aGVudGljYXRpb24gJmFtcDsgQXV0aG9yaXphdGlvbjwvdGV4dD48L2c+PCEtLWxpbmsgRGFzaGJvYXJkIFNlcnZpY2UgdG8gV2lkZ2V0IExpYnJhcnktLT48ZyBpZD0ibGlua19EYXNoYm9hcmQgU2VydmljZV9XaWRnZXQgTGlicmFyeSI+PHBhdGggZD0iTTgzMC45NSw4NC4wOSBDNzkxLjAxLDEwMS42NyA3NDAuNDAxMSwxMjMuOTQxOCA3MDAuNDgxMSwxNDEuNTIxOCAiIGZpbGw9Im5vbmUiIGlkPSJEYXNoYm9hcmQgU2VydmljZS10by1XaWRnZXQgTGlicmFyeSIgc3R5bGU9InN0cm9rZTojMTgxODE4O3N0cm9rZS13aWR0aDoxLjA7Ii8+PHBvbHlnb24gZmlsbD0iIzE4MTgxOCIgcG9pbnRzPSI2OTQuOTksMTQzLjk0LDcwNC44Mzg4LDE0My45NzM1LDY5OS41NjU5LDE0MS45MjQ4LDcwMS42MTQ2LDEzNi42NTIsNjk0Ljk5LDE0My45NCIgc3R5bGU9InN0cm9rZTojMTgxODE4O3N0cm9rZS13aWR0aDoxLjA7Ii8+PC9nPjwhLS1saW5rIERhc2hib2FyZCBTZXJ2aWNlIHRvIEFQSSBHYXRld2F5LS0+PGcgaWQ9ImxpbmtfRGFzaGJvYXJkIFNlcnZpY2VfQVBJIEdhdGV3YXkiPjxwYXRoIGQ9Ik04NjQuOTQsODQuMzQgQzg1Mi44OSwxMDEuODIgODM5LjQ4NDgsMTIxLjI3OTYgODI3LjQ0NDgsMTM4Ljc0OTYgIiBmaWxsPSJub25lIiBpZD0iRGFzaGJvYXJkIFNlcnZpY2UtdG8tQVBJIEdhdGV3YXkiIHN0eWxlPSJzdHJva2U6IzE4MTgxODtzdHJva2Utd2lkdGg6MS4wOyIvPjxwb2x5Z29uIGZpbGw9IiMxODE4MTgiIHBvaW50cz0iODI0LjA0LDE0My42OSw4MzIuNDQwOCwxMzguNTQ5Myw4MjYuODc3MywxMzkuNTczLDgyNS44NTM2LDEzNC4wMDk2LDgyNC4wNCwxNDMuNjkiIHN0eWxlPSJzdHJva2U6IzE4MTgxODtzdHJva2Utd2lkdGg6MS4wOyIvPjwvZz48IS0tbGluayBEYXNoYm9hcmQgU2VydmljZSB0byBEYXRhYmFzZS0tPjxnIGlkPSJsaW5rX0Rhc2hib2FyZCBTZXJ2aWNlX0RhdGFiYXNlIj48cGF0aCBkPSJNODk1LjA2LDg0LjM0IEM5MDcuMTEsMTAxLjgyIDkyMC41MTUyLDEyMS4yNzk2IDkzMi41NTUyLDEzOC43NDk2ICIgZmlsbD0ibm9uZSIgaWQ9IkRhc2hib2FyZCBTZXJ2aWNlLXRvLURhdGFiYXNlIiBzdHlsZT0ic3Ryb2tlOiMxODE4MTg7c3Ryb2tlLXdpZHRoOjEuMDsiLz48cG9seWdvbiBmaWxsPSIjMTgxODE4IiBwb2ludHM9IjkzNS45NiwxNDMuNjksOTM0LjE0NjQsMTM0LjAwOTYsOTMzLjEyMjcsMTM5LjU3Myw5MjcuNTU5MiwxMzguNTQ5Myw5MzUuOTYsMTQzLjY5IiBzdHlsZT0ic3Ryb2tlOiMxODE4MTg7c3Ryb2tlLXdpZHRoOjEuMDsiLz48L2c+PCEtLWxpbmsgRGFzaGJvYXJkIFNlcnZpY2UgdG8gQ2FjaGUtLT48ZyBpZD0ibGlua19EYXNoYm9hcmQgU2VydmljZV9DYWNoZSI+PHBhdGggZD0iTTkzMi42Miw4NC4wOSBDOTgwLjYzLDEwMy43OSAxMDQ0Ljg2OTQsMTMwLjE1MTYgMTA4Ny41OTk0LDE0Ny42OTE2ICIgZmlsbD0ibm9uZSIgaWQ9IkRhc2hib2FyZCBTZXJ2aWNlLXRvLUNhY2hlIiBzdHlsZT0ic3Ryb2tlOiMxODE4MTg7c3Ryb2tlLXdpZHRoOjEuMDsiLz48cG9seWdvbiBmaWxsPSIjMTgxODE4IiBwb2ludHM9IjEwOTMuMTUsMTQ5Ljk3LDEwODYuMzQzMSwxNDIuODUyLDEwODguNTI0NSwxNDguMDcxMywxMDgzLjMwNTIsMTUwLjI1MjcsMTA5My4xNSwxNDkuOTciIHN0eWxlPSJzdHJva2U6IzE4MTgxODtzdHJva2Utd2lkdGg6MS4wOyIvPjwvZz48IS0tbGluayBXaWRnZXQgTGlicmFyeSB0byBWaXN1YWxpemF0aW9uIEVuZ2luZS0tPjxnIGlkPSJsaW5rX1dpZGdldCBMaWJyYXJ5X1Zpc3VhbGl6YXRpb24gRW5naW5lIj48cGF0aCBkPSJNNTc2LjYzLDE4NS4yOSBDNTcxLjAxLDE4Ni41OSA1NjUuNDIsMTg3Ljg1IDU2MCwxODkgQzQwOS45MiwyMjAuOTYgMzcwLjgxLDIyMC42OSAyMjAsMjQ5IEMyMTQuMTgsMjUwLjA5IDIxNC4wNzI3LDI1MC4xMTAyIDIwOC4wMjI3LDI1MS4yNzAyICIgZmlsbD0ibm9uZSIgaWQ9IldpZGdldCBMaWJyYXJ5LXRvLVZpc3VhbGl6YXRpb24gRW5naW5lIiBzdHlsZT0ic3Ryb2tlOiMxODE4MTg7c3Ryb2tlLXdpZHRoOjEuMDsiLz48cG9seWdvbiBmaWxsPSIjMTgxODE4IiBwb2ludHM9IjIwMi4xMywyNTIuNCwyMTEuNzIyMiwyNTQuNjMzNywyMDcuMDQwNiwyNTEuNDU4NSwyMTAuMjE1OCwyNDYuNzc2OCwyMDIuMTMsMjUyLjQiIHN0eWxlPSJzdHJva2U6IzE4MTgxODtzdHJva2Utd2lkdGg6MS4wOyIvPjwvZz48IS0tbGluayBXaWRnZXQgTGlicmFyeSB0byBVc2VyIEN1c3RvbWl6YXRpb24tLT48ZyBpZD0ibGlua19XaWRnZXQgTGlicmFyeV9Vc2VyIEN1c3RvbWl6YXRpb24iPjxwYXRoIGQ9Ik01NzcuODcsMTg5LjA5IEM1MjIuNCwyMDYuNjcgNDUwLjE5OTMsMjI5LjU0NjQgMzk0Ljc1OTMsMjQ3LjEyNjQgIiBmaWxsPSJub25lIiBpZD0iV2lkZ2V0IExpYnJhcnktdG8tVXNlciBDdXN0b21pemF0aW9uIiBzdHlsZT0ic3Ryb2tlOiMxODE4MTg7c3Ryb2tlLXdpZHRoOjEuMDsiLz48cG9seWdvbiBmaWxsPSIjMTgxODE4IiBwb2ludHM9IjM4OS4wNCwyNDguOTQsMzk4LjgyODEsMjUwLjAzMjUsMzkzLjgwNjEsMjQ3LjQyODcsMzk2LjQwOTksMjQyLjQwNjcsMzg5LjA0LDI0OC45NCIgc3R5bGU9InN0cm9rZTojMTgxODE4O3N0cm9rZS13aWR0aDoxLjA7Ii8+PC9nPjwhLS1saW5rIEFQSSBHYXRld2F5IHRvIFJFU1QgQVBJLS0+PGcgaWQ9ImxpbmtfQVBJIEdhdGV3YXlfUkVTVCBBUEkiPjxwYXRoIGQ9Ik03NDkuOTcsMTg2LjI2IEM2OTguMjcsMjAyLjcyIDYyMS4xMiwyMjcuMzQgNTU0LDI0OSBDNTQ4LjI3LDI1MC44NSA1NDcuOTU4MiwyNTAuOTUxNSA1NDEuOTk4MiwyNTIuODgxNSAiIGZpbGw9Im5vbmUiIGlkPSJBUEkgR2F0ZXdheS10by1SRVNUIEFQSSIgc3R5bGU9InN0cm9rZTojMTgxODE4O3N0cm9rZS13aWR0aDoxLjA7Ii8+PHBvbHlnb24gZmlsbD0iIzE4MTgxOCIgcG9pbnRzPSI1MzYuMjksMjU0LjczLDU0Ni4wODQ2LDI1NS43NjI4LDU0MS4wNDY4LDI1My4xODk2LDU0My42MiwyNDguMTUxOSw1MzYuMjksMjU0LjczIiBzdHlsZT0ic3Ryb2tlOiMxODE4MTg7c3Ryb2tlLXdpZHRoOjEuMDsiLz48L2c+PCEtLWxpbmsgQVBJIEdhdGV3YXkgdG8gV2ViU29ja2V0cy0tPjxnIGlkPSJsaW5rX0FQSSBHYXRld2F5X1dlYlNvY2tldHMiPjxwYXRoIGQ9Ik03NzAuNjQsMTg5LjA5IEM3MzkuNCwyMDYuNjcgNzAwLjc1ODEsMjI4LjQxNiA2NjkuNTM4MSwyNDUuOTk2ICIgZmlsbD0ibm9uZSIgaWQ9IkFQSSBHYXRld2F5LXRvLVdlYlNvY2tldHMiIHN0eWxlPSJzdHJva2U6IzE4MTgxODtzdHJva2Utd2lkdGg6MS4wOyIvPjxwb2x5Z29uIGZpbGw9IiMxODE4MTgiIHBvaW50cz0iNjY0LjMxLDI0OC45NCw2NzQuMTE0OCwyNDguMDA5NSw2NjguNjY2OCwyNDYuNDg2Nyw2NzAuMTg5NSwyNDEuMDM4Nyw2NjQuMzEsMjQ4Ljk0IiBzdHlsZT0ic3Ryb2tlOiMxODE4MTg7c3Ryb2tlLXdpZHRoOjEuMDsiLz48L2c+PCEtLWxpbmsgQVBJIEdhdGV3YXkgdG8gR3JhcGhRTCBBUEktLT48ZyBpZD0ibGlua19BUEkgR2F0ZXdheV9HcmFwaFFMIEFQSSI+PHBhdGggZD0iTTgwMS43OSwxODkuMzQgQzc5Ni4wMiwyMDYuODIgNzg5Ljg1MTcsMjI1LjUyMjcgNzg0LjA4MTcsMjQyLjk5MjcgIiBmaWxsPSJub25lIiBpZD0iQVBJIEdhdGV3YXktdG8tR3JhcGhRTCBBUEkiIHN0eWxlPSJzdHJva2U6IzE4MTgxODtzdHJva2Utd2lkdGg6MS4wOyIvPjxwb2x5Z29uIGZpbGw9IiMxODE4MTgiIHBvaW50cz0iNzgyLjIsMjQ4LjY5LDc4OC44MjA4LDI0MS4zOTg1LDc4My43NjgxLDI0My45NDIzLDc4MS4yMjQ0LDIzOC44ODk2LDc4Mi4yLDI0OC42OSIgc3R5bGU9InN0cm9rZTojMTgxODE4O3N0cm9rZS13aWR0aDoxLjA7Ii8+PC9nPjwhLS1saW5rIERhdGFiYXNlIHRvIFBvc3RncmVTUUwtLT48ZyBpZD0ibGlua19EYXRhYmFzZV9Qb3N0Z3JlU1FMIj48cGF0aCBkPSJNOTQ1LjI3LDE4OS4zNCBDOTQwLjY5LDIwNi44MiA5MzUuODIxNiwyMjUuNDE2MSA5MzEuMjQxNiwyNDIuODg2MSAiIGZpbGw9Im5vbmUiIGlkPSJEYXRhYmFzZS10by1Qb3N0Z3JlU1FMIiBzdHlsZT0ic3Ryb2tlOiMxODE4MTg7c3Ryb2tlLXdpZHRoOjEuMDsiLz48cG9seWdvbiBmaWxsPSIjMTgxODE4IiBwb2ludHM9IjkyOS43MiwyNDguNjksOTM1Ljg3MTYsMjQwLjk5ODYsOTMwLjk4OCwyNDMuODUzNCw5MjguMTMzMSwyMzguOTY5OCw5MjkuNzIsMjQ4LjY5IiBzdHlsZT0ic3Ryb2tlOiMxODE4MTg7c3Ryb2tlLXdpZHRoOjEuMDsiLz48L2c+PCEtLWxpbmsgRGF0YWJhc2UgdG8gQ2Fzc2FuZHJhLS0+PGcgaWQ9ImxpbmtfRGF0YWJhc2VfQ2Fzc2FuZHJhIj48cGF0aCBkPSJNOTc1LjExLDE4OS4wOSBDOTk0LjczLDIwNi42NyAxMDE3Ljg0MjQsMjI3LjM1NDkgMTAzNy40NTI0LDI0NC45MzQ5ICIgZmlsbD0ibm9uZSIgaWQ9IkRhdGFiYXNlLXRvLUNhc3NhbmRyYSIgc3R5bGU9InN0cm9rZTojMTgxODE4O3N0cm9rZS13aWR0aDoxLjA7Ii8+PHBvbHlnb24gZmlsbD0iIzE4MTgxOCIgcG9pbnRzPSIxMDQxLjkyLDI0OC45NCwxMDM3Ljg4ODcsMjM5Ljk1NCwxMDM4LjE5NywyNDUuNjAyNCwxMDMyLjU0ODYsMjQ1LjkxMDcsMTA0MS45MiwyNDguOTQiIHN0eWxlPSJzdHJva2U6IzE4MTgxODtzdHJva2Utd2lkdGg6MS4wOyIvPjwvZz48IS0tbGluayBDYWNoZSB0byBSZWRpcy0tPjxnIGlkPSJsaW5rX0NhY2hlX1JlZGlzIj48cGF0aCBkPSJNMTE0My41MSwxODkuMzQgQzExNTMuNTIsMjA2LjgyIDExNjQuNTE3MSwyMjYuMDE0IDExNzQuNTI3MSwyNDMuNDg0ICIgZmlsbD0ibm9uZSIgaWQ9IkNhY2hlLXRvLVJlZGlzIiBzdHlsZT0ic3Ryb2tlOiMxODE4MTg7c3Ryb2tlLXdpZHRoOjEuMDsiLz48cG9seWdvbiBmaWxsPSIjMTgxODE4IiBwb2ludHM9IjExNzcuNTEsMjQ4LjY5LDExNzYuNTA2MywyMzguODkyNCwxMTc1LjAyNDIsMjQ0LjM1MTcsMTE2OS41NjUsMjQyLjg2OTcsMTE3Ny41MSwyNDguNjkiIHN0eWxlPSJzdHJva2U6IzE4MTgxODtzdHJva2Utd2lkdGg6MS4wOyIvPjwvZz48IS0tbGluayBTZWN1cml0eSB0byBSQkFDLS0+PGcgaWQ9ImxpbmtfU2VjdXJpdHlfUkJBQyI+PHBhdGggZD0iTTE2Mi43LDg0LjA5IEMxMzkuNjYsMTAxLjY3IDExMi4wNTkzLDEyMi43MTk0IDg5LjAyOTMsMTQwLjI5OTQgIiBmaWxsPSJub25lIiBpZD0iU2VjdXJpdHktdG8tUkJBQyIgc3R5bGU9InN0cm9rZTojMTgxODE4O3N0cm9rZS13aWR0aDoxLjA7Ii8+PHBvbHlnb24gZmlsbD0iIzE4MTgxOCIgcG9pbnRzPSI4NC4yNiwxNDMuOTQsOTMuODQxLDE0MS42NTg2LDg4LjIzNDQsMTQwLjkwNjEsODguOTg2OCwxMzUuMjk5Niw4NC4yNiwxNDMuOTQiIHN0eWxlPSJzdHJva2U6IzE4MTgxODtzdHJva2Utd2lkdGg6MS4wOyIvPjwvZz48IS0tbGluayBTZWN1cml0eSB0byBNdWx0aS1UZW5hbmN5LS0+PGcgaWQ9ImxpbmtfU2VjdXJpdHlfTXVsdGktVGVuYW5jeSI+PHBhdGggZD0iTTE5MSw4NC4zNCBDMTkxLDEwMS44MiAxOTEsMTIwLjIyIDE5MSwxMzcuNjkgIiBmaWxsPSJub25lIiBpZD0iU2VjdXJpdHktdG8tTXVsdGktVGVuYW5jeSIgc3R5bGU9InN0cm9rZTojMTgxODE4O3N0cm9rZS13aWR0aDoxLjA7Ii8+PHBvbHlnb24gZmlsbD0iIzE4MTgxOCIgcG9pbnRzPSIxOTEsMTQzLjY5LDE5NSwxMzQuNjksMTkxLDEzOC42OSwxODcsMTM0LjY5LDE5MSwxNDMuNjkiIHN0eWxlPSJzdHJva2U6IzE4MTgxODtzdHJva2Utd2lkdGg6MS4wOyIvPjwvZz48IS0tbGluayBTZWN1cml0eSB0byBBdXRoZW50aWNhdGlvbiAmIEF1dGhvcml6YXRpb24tLT48ZyBpZD0ibGlua19TZWN1cml0eV9BdXRoZW50aWNhdGlvbiAmYW1wOyBBdXRob3JpemF0aW9uIj48cGF0aCBkPSJNMjM4LjM4LDg0LjA5IEMyNzYuOTUsMTAxLjY3IDMyNS42NzA2LDEyMy44NzEgMzY0LjIzMDYsMTQxLjQ1MSAiIGZpbGw9Im5vbmUiIGlkPSJTZWN1cml0eS10by1BdXRoZW50aWNhdGlvbiAmYW1wOyBBdXRob3JpemF0aW9uIiBzdHlsZT0ic3Ryb2tlOiMxODE4MTg7c3Ryb2tlLXdpZHRoOjEuMDsiLz48cG9seWdvbiBmaWxsPSIjMTgxODE4IiBwb2ludHM9IjM2OS42OSwxNDMuOTQsMzYzLjE2MDMsMTM2LjU2NjksMzY1LjE0MDUsMTQxLjg2NTgsMzU5Ljg0MTYsMTQzLjg0NjEsMzY5LjY5LDE0My45NCIgc3R5bGU9InN0cm9rZTojMTgxODE4O3N0cm9rZS13aWR0aDoxLjA7Ii8+PC9nPjwhLS1TUkM9W1hQQjFSZUNtMzhSbFZHZ2hYLXQ0QXFvWUs1TUpjREdFalh1ZzNZUXVPQk00QVd3UnNCSHQ3cnFPR25EalN1aHlWeDd6X3llelhCSGRKTTFCV1dmUFd4SFlnUGdUSzFzbTg5V2Q5VWoyNVpNUTc0QUtDWmxWa1hCNEYtMFNGY1ZHZFRzV0dLcGNaSE1idTdhRmlEam9OZjI1WTNFM2Zhc2xtX3h3NExQZXdIcmxhSTVRcDUzZTFYUVdBZGw2V1ZfTVNUR2hJdUQ3X2EzQmpPUWJCaGY0cVlseVl2MjFlMTVSTF9zWnlPWW4yU1NfQi1DNGtkOXcyVFhJNWpWZ0c1T2s4WWszZnQ4Sl9STnZEVHhkdUFYckJST201Ni1ZVDU4RkswSHJSZDNTbXVOS2hxZXZvcllDSUpNNnhNMWJ1R1ZmZkZCSzcycngyTWRLZ2ZyNl9BUnhQamdvU2E3Vm1SYkdjbzczaHN5MF0tLT48L2c+PC9zdmc+;" vertex="1" parent="1">
            <mxGeometry x="110" y="100" width="1250" height="317" as="geometry" />
          </mxCell>
        </UserObject>
        <mxCell id="P3c6qDh03aw6tttAvGT_-3" value="Text" style="text;html=1;align=center;verticalAlign=middle;whiteSpace=wrap;rounded=0;" vertex="1" parent="1">
          <mxGeometry x="820" y="440" width="60" height="30" as="geometry" />
        </mxCell>
        <mxCell id="P3c6qDh03aw6tttAvGT_-4" value="Component diagram" style="text;html=1;align=center;verticalAlign=middle;whiteSpace=wrap;rounded=0;" vertex="1" parent="1">
          <mxGeometry x="630" y="50" width="170" height="30" as="geometry" />
        </mxCell>
        <UserObject label="" plantUmlData="{&#xa;  &quot;data&quot;: &quot;@startuml\n\nclass DashboardService {\n    +createDashboard()\n    +updateDashboard()\n    +deleteDashboard()\n    +getDashboard()\n}\n\nclass WidgetLibrary {\n    +getAvailableWidgets()\n    +addWidget()\n    +removeWidget()\n}\n\nclass APIService {\n    +handleRESTRequest()\n    +handleGraphQLRequest()\n    +handleWebSocketConnection()\n}\n\nclass Database {\n    +storeDashboardData()\n    +retrieveDashboardData()\n}\n\nclass Cache {\n    +cacheDashboard()\n    +evictCache()\n}\n\nclass Security {\n    +authenticateUser()\n    +authorizeAccess()\n}\n\nDashboardService --&gt; WidgetLibrary\nDashboardService --&gt; APIService\nDashboardService --&gt; Database\nDashboardService --&gt; Cache\n\nAPIService --&gt; Security\nDatabase --&gt; Security\n\n@enduml\n&quot;,&#xa;  &quot;format&quot;: &quot;svg&quot;&#xa;}" id="P3c6qDh03aw6tttAvGT_-5">
          <mxCell style="shape=image;noLabel=1;verticalAlign=top;aspect=fixed;imageAspect=0;image=data:image/svg+xml,PD94bWwgdmVyc2lvbj0iMS4wIiBlbmNvZGluZz0idXMtYXNjaWkiIHN0YW5kYWxvbmU9Im5vIj8+PHN2ZyB4bWxucz0iaHR0cDovL3d3dy53My5vcmcvMjAwMC9zdmciIHhtbG5zOnhsaW5rPSJodHRwOi8vd3d3LnczLm9yZy8xOTk5L3hsaW5rIiBjb250ZW50U3R5bGVUeXBlPSJ0ZXh0L2NzcyIgaGVpZ2h0PSI0MTJweCIgcHJlc2VydmVBc3BlY3RSYXRpbz0ibm9uZSIgc3R5bGU9IndpZHRoOjg0MHB4O2hlaWdodDo0MTJweDtiYWNrZ3JvdW5kOiNGRkZGRkY7IiB2ZXJzaW9uPSIxLjEiIHZpZXdCb3g9IjAgMCA4NDAgNDEyIiB3aWR0aD0iODQwcHgiIHpvb21BbmRQYW49Im1hZ25pZnkiPjxkZWZzLz48Zz48IS0tY2xhc3MgRGFzaGJvYXJkU2VydmljZS0tPjxnIGlkPSJlbGVtX0Rhc2hib2FyZFNlcnZpY2UiPjxyZWN0IGNvZGVMaW5lPSIxIiBmaWxsPSIjRjFGMUYxIiBoZWlnaHQ9IjEwNy45Mzc1IiBpZD0iRGFzaGJvYXJkU2VydmljZSIgcng9IjIuNSIgcnk9IjIuNSIgc3R5bGU9InN0cm9rZTojMTgxODE4O3N0cm9rZS13aWR0aDowLjU7IiB3aWR0aD0iMTQ3IiB4PSIzNzEiIHk9IjciLz48ZWxsaXBzZSBjeD0iMzg3LjM1IiBjeT0iMjMiIGZpbGw9IiNBREQxQjIiIHJ4PSIxMSIgcnk9IjExIiBzdHlsZT0ic3Ryb2tlOiMxODE4MTg7c3Ryb2tlLXdpZHRoOjEuMDsiLz48cGF0aCBkPSJNMzg0Ljk3NSwyNy4yNSBMMzg0Ljk3NSwyOSBMMzg5LjkxMjUsMjkgTDM4OS45MTI1LDI3LjI1IEwzODQuOTc1LDI3LjI1IFogTTM4NS42NjI1LDI3LjkzNzUgUTM4NS42NjI1LDI3LjkzNzUgMzg1LjY2MjUsMTguNzUgTDM4My45MTI1LDE4Ljc1IFEzODMuOTEyNSwxOC43NSAzODMuOTEyNSwyNy45Mzc1IEwzODUuNjYyNSwyNy45Mzc1IFogTTM4OS4yMjUsMjcuOTM3NSBMMzkwLjk3NSwyNy45Mzc1IFEzOTAuOTc1LDI3LjkzNzUgMzkwLjk3NSwyNS4xMjUgTDM4OS4yMjUsMjUuMTI1IFEzODkuMjI1LDI1LjEyNSAzODkuMjI1LDI3LjkzNzUgWiBNMzg5LjIyNSwxOC43NSBRMzg5LjIyNSwxOC43NSAzODkuMjI1LDIxLjU2MjUgTDM5MC45NzUsMjEuNTYyNSBRMzkwLjk3NSwyMS41NjI1IDM5MC45NzUsMTguNzUgTDM4OS4yMjUsMTguNzUgWiBNMzg0Ljk3NSwxOS40Mzc1IEwzODkuOTEyNSwxOS40Mzc1IEwzODkuOTEyNSwxNy42ODc1IEwzODQuOTc1LDE3LjY4NzUgTDM4NC45NzUsMTkuNDM3NSBaICIgZmlsbD0iIzAwMDAwMCIvPjx0ZXh0IGZpbGw9IiMwMDAwMDAiIGZvbnQtZmFtaWx5PSJzYW5zLXNlcmlmIiBmb250LXNpemU9IjE0IiBsZW5ndGhBZGp1c3Q9InNwYWNpbmciIHRleHRMZW5ndGg9IjExMiIgeD0iNDAxLjY1IiB5PSIyOC43NDIyIj5EYXNoYm9hcmRTZXJ2aWNlPC90ZXh0PjxsaW5lIHN0eWxlPSJzdHJva2U6IzE4MTgxODtzdHJva2Utd2lkdGg6MC41OyIgeDE9IjM3MiIgeDI9IjUxNyIgeTE9IjM5IiB5Mj0iMzkiLz48bGluZSBzdHlsZT0ic3Ryb2tlOiMxODE4MTg7c3Ryb2tlLXdpZHRoOjAuNTsiIHgxPSIzNzIiIHgyPSI1MTciIHkxPSI0NyIgeTI9IjQ3Ii8+PGVsbGlwc2UgY3g9IjM4MiIgY3k9IjU5Ljk5MjIiIGZpbGw9IiM4NEJFODQiIHJ4PSIzIiByeT0iMyIgc3R5bGU9InN0cm9rZTojMDM4MDQ4O3N0cm9rZS13aWR0aDoxLjA7Ii8+PHRleHQgZmlsbD0iIzAwMDAwMCIgZm9udC1mYW1pbHk9InNhbnMtc2VyaWYiIGZvbnQtc2l6ZT0iMTQiIGxlbmd0aEFkanVzdD0ic3BhY2luZyIgdGV4dExlbmd0aD0iMTIxIiB4PSIzOTEiIHk9IjY0LjIzNDQiPmNyZWF0ZURhc2hib2FyZCgpPC90ZXh0PjxlbGxpcHNlIGN4PSIzODIiIGN5PSI3NC45NzY2IiBmaWxsPSIjODRCRTg0IiByeD0iMyIgcnk9IjMiIHN0eWxlPSJzdHJva2U6IzAzODA0ODtzdHJva2Utd2lkdGg6MS4wOyIvPjx0ZXh0IGZpbGw9IiMwMDAwMDAiIGZvbnQtZmFtaWx5PSJzYW5zLXNlcmlmIiBmb250LXNpemU9IjE0IiBsZW5ndGhBZGp1c3Q9InNwYWNpbmciIHRleHRMZW5ndGg9IjEyMSIgeD0iMzkxIiB5PSI3OS4yMTg4Ij51cGRhdGVEYXNoYm9hcmQoKTwvdGV4dD48ZWxsaXBzZSBjeD0iMzgyIiBjeT0iODkuOTYwOSIgZmlsbD0iIzg0QkU4NCIgcng9IjMiIHJ5PSIzIiBzdHlsZT0ic3Ryb2tlOiMwMzgwNDg7c3Ryb2tlLXdpZHRoOjEuMDsiLz48dGV4dCBmaWxsPSIjMDAwMDAwIiBmb250LWZhbWlseT0ic2Fucy1zZXJpZiIgZm9udC1zaXplPSIxNCIgbGVuZ3RoQWRqdXN0PSJzcGFjaW5nIiB0ZXh0TGVuZ3RoPSIxMjEiIHg9IjM5MSIgeT0iOTQuMjAzMSI+ZGVsZXRlRGFzaGJvYXJkKCk8L3RleHQ+PGVsbGlwc2UgY3g9IjM4MiIgY3k9IjEwNC45NDUzIiBmaWxsPSIjODRCRTg0IiByeD0iMyIgcnk9IjMiIHN0eWxlPSJzdHJva2U6IzAzODA0ODtzdHJva2Utd2lkdGg6MS4wOyIvPjx0ZXh0IGZpbGw9IiMwMDAwMDAiIGZvbnQtZmFtaWx5PSJzYW5zLXNlcmlmIiBmb250LXNpemU9IjE0IiBsZW5ndGhBZGp1c3Q9InNwYWNpbmciIHRleHRMZW5ndGg9IjEwMCIgeD0iMzkxIiB5PSIxMDkuMTg3NSI+Z2V0RGFzaGJvYXJkKCk8L3RleHQ+PC9nPjwhLS1jbGFzcyBXaWRnZXRMaWJyYXJ5LS0+PGcgaWQ9ImVsZW1fV2lkZ2V0TGlicmFyeSI+PHJlY3QgY29kZUxpbmU9IjgiIGZpbGw9IiNGMUYxRjEiIGhlaWdodD0iOTIuOTUzMSIgaWQ9IldpZGdldExpYnJhcnkiIHJ4PSIyLjUiIHJ5PSIyLjUiIHN0eWxlPSJzdHJva2U6IzE4MTgxODtzdHJva2Utd2lkdGg6MC41OyIgd2lkdGg9IjE3NSIgeD0iNyIgeT0iMTc1Ii8+PGVsbGlwc2UgY3g9IjQ1LjQiIGN5PSIxOTEiIGZpbGw9IiNBREQxQjIiIHJ4PSIxMSIgcnk9IjExIiBzdHlsZT0ic3Ryb2tlOiMxODE4MTg7c3Ryb2tlLXdpZHRoOjEuMDsiLz48cGF0aCBkPSJNNDMuMDI1LDE5NS4yNSBMNDMuMDI1LDE5NyBMNDcuOTYyNSwxOTcgTDQ3Ljk2MjUsMTk1LjI1IEw0My4wMjUsMTk1LjI1IFogTTQzLjcxMjUsMTk1LjkzNzUgUTQzLjcxMjUsMTk1LjkzNzUgNDMuNzEyNSwxODYuNzUgTDQxLjk2MjUsMTg2Ljc1IFE0MS45NjI1LDE4Ni43NSA0MS45NjI1LDE5NS45Mzc1IEw0My43MTI1LDE5NS45Mzc1IFogTTQ3LjI3NSwxOTUuOTM3NSBMNDkuMDI1LDE5NS45Mzc1IFE0OS4wMjUsMTk1LjkzNzUgNDkuMDI1LDE5My4xMjUgTDQ3LjI3NSwxOTMuMTI1IFE0Ny4yNzUsMTkzLjEyNSA0Ny4yNzUsMTk1LjkzNzUgWiBNNDcuMjc1LDE4Ni43NSBRNDcuMjc1LDE4Ni43NSA0Ny4yNzUsMTg5LjU2MjUgTDQ5LjAyNSwxODkuNTYyNSBRNDkuMDI1LDE4OS41NjI1IDQ5LjAyNSwxODYuNzUgTDQ3LjI3NSwxODYuNzUgWiBNNDMuMDI1LDE4Ny40Mzc1IEw0Ny45NjI1LDE4Ny40Mzc1IEw0Ny45NjI1LDE4NS42ODc1IEw0My4wMjUsMTg1LjY4NzUgTDQzLjAyNSwxODcuNDM3NSBaICIgZmlsbD0iIzAwMDAwMCIvPjx0ZXh0IGZpbGw9IiMwMDAwMDAiIGZvbnQtZmFtaWx5PSJzYW5zLXNlcmlmIiBmb250LXNpemU9IjE0IiBsZW5ndGhBZGp1c3Q9InNwYWNpbmciIHRleHRMZW5ndGg9IjkxIiB4PSI2NC42IiB5PSIxOTYuNzQyMiI+V2lkZ2V0TGlicmFyeTwvdGV4dD48bGluZSBzdHlsZT0ic3Ryb2tlOiMxODE4MTg7c3Ryb2tlLXdpZHRoOjAuNTsiIHgxPSI4IiB4Mj0iMTgxIiB5MT0iMjA3IiB5Mj0iMjA3Ii8+PGxpbmUgc3R5bGU9InN0cm9rZTojMTgxODE4O3N0cm9rZS13aWR0aDowLjU7IiB4MT0iOCIgeDI9IjE4MSIgeTE9IjIxNSIgeTI9IjIxNSIvPjxlbGxpcHNlIGN4PSIxOCIgY3k9IjIyNy45OTIyIiBmaWxsPSIjODRCRTg0IiByeD0iMyIgcnk9IjMiIHN0eWxlPSJzdHJva2U6IzAzODA0ODtzdHJva2Utd2lkdGg6MS4wOyIvPjx0ZXh0IGZpbGw9IiMwMDAwMDAiIGZvbnQtZmFtaWx5PSJzYW5zLXNlcmlmIiBmb250LXNpemU9IjE0IiBsZW5ndGhBZGp1c3Q9InNwYWNpbmciIHRleHRMZW5ndGg9IjE0OSIgeD0iMjciIHk9IjIzMi4yMzQ0Ij5nZXRBdmFpbGFibGVXaWRnZXRzKCk8L3RleHQ+PGVsbGlwc2UgY3g9IjE4IiBjeT0iMjQyLjk3NjYiIGZpbGw9IiM4NEJFODQiIHJ4PSIzIiByeT0iMyIgc3R5bGU9InN0cm9rZTojMDM4MDQ4O3N0cm9rZS13aWR0aDoxLjA7Ii8+PHRleHQgZmlsbD0iIzAwMDAwMCIgZm9udC1mYW1pbHk9InNhbnMtc2VyaWYiIGZvbnQtc2l6ZT0iMTQiIGxlbmd0aEFkanVzdD0ic3BhY2luZyIgdGV4dExlbmd0aD0iNzkiIHg9IjI3IiB5PSIyNDcuMjE4OCI+YWRkV2lkZ2V0KCk8L3RleHQ+PGVsbGlwc2UgY3g9IjE4IiBjeT0iMjU3Ljk2MDkiIGZpbGw9IiM4NEJFODQiIHJ4PSIzIiByeT0iMyIgc3R5bGU9InN0cm9rZTojMDM4MDQ4O3N0cm9rZS13aWR0aDoxLjA7Ii8+PHRleHQgZmlsbD0iIzAwMDAwMCIgZm9udC1mYW1pbHk9InNhbnMtc2VyaWYiIGZvbnQtc2l6ZT0iMTQiIGxlbmd0aEFkanVzdD0ic3BhY2luZyIgdGV4dExlbmd0aD0iMTAxIiB4PSIyNyIgeT0iMjYyLjIwMzEiPnJlbW92ZVdpZGdldCgpPC90ZXh0PjwvZz48IS0tY2xhc3MgQVBJU2VydmljZS0tPjxnIGlkPSJlbGVtX0FQSVNlcnZpY2UiPjxyZWN0IGNvZGVMaW5lPSIxNCIgZmlsbD0iI0YxRjFGMSIgaGVpZ2h0PSI5Mi45NTMxIiBpZD0iQVBJU2VydmljZSIgcng9IjIuNSIgcnk9IjIuNSIgc3R5bGU9InN0cm9rZTojMTgxODE4O3N0cm9rZS13aWR0aDowLjU7IiB3aWR0aD0iMjE3IiB4PSIyMTciIHk9IjE3NSIvPjxlbGxpcHNlIGN4PSIyODYuMjUiIGN5PSIxOTEiIGZpbGw9IiNBREQxQjIiIHJ4PSIxMSIgcnk9IjExIiBzdHlsZT0ic3Ryb2tlOiMxODE4MTg7c3Ryb2tlLXdpZHRoOjEuMDsiLz48cGF0aCBkPSJNMjgzLjg3NSwxOTUuMjUgTDI4My44NzUsMTk3IEwyODguODEyNSwxOTcgTDI4OC44MTI1LDE5NS4yNSBMMjgzLjg3NSwxOTUuMjUgWiBNMjg0LjU2MjUsMTk1LjkzNzUgUTI4NC41NjI1LDE5NS45Mzc1IDI4NC41NjI1LDE4Ni43NSBMMjgyLjgxMjUsMTg2Ljc1IFEyODIuODEyNSwxODYuNzUgMjgyLjgxMjUsMTk1LjkzNzUgTDI4NC41NjI1LDE5NS45Mzc1IFogTTI4OC4xMjUsMTk1LjkzNzUgTDI4OS44NzUsMTk1LjkzNzUgUTI4OS44NzUsMTk1LjkzNzUgMjg5Ljg3NSwxOTMuMTI1IEwyODguMTI1LDE5My4xMjUgUTI4OC4xMjUsMTkzLjEyNSAyODguMTI1LDE5NS45Mzc1IFogTTI4OC4xMjUsMTg2Ljc1IFEyODguMTI1LDE4Ni43NSAyODguMTI1LDE4OS41NjI1IEwyODkuODc1LDE4OS41NjI1IFEyODkuODc1LDE4OS41NjI1IDI4OS44NzUsMTg2Ljc1IEwyODguMTI1LDE4Ni43NSBaIE0yODMuODc1LDE4Ny40Mzc1IEwyODguODEyNSwxODcuNDM3NSBMMjg4LjgxMjUsMTg1LjY4NzUgTDI4My44NzUsMTg1LjY4NzUgTDI4My44NzUsMTg3LjQzNzUgWiAiIGZpbGw9IiMwMDAwMDAiLz48dGV4dCBmaWxsPSIjMDAwMDAwIiBmb250LWZhbWlseT0ic2Fucy1zZXJpZiIgZm9udC1zaXplPSIxNCIgbGVuZ3RoQWRqdXN0PSJzcGFjaW5nIiB0ZXh0TGVuZ3RoPSI3MCIgeD0iMzA2Ljc1IiB5PSIxOTYuNzQyMiI+QVBJU2VydmljZTwvdGV4dD48bGluZSBzdHlsZT0ic3Ryb2tlOiMxODE4MTg7c3Ryb2tlLXdpZHRoOjAuNTsiIHgxPSIyMTgiIHgyPSI0MzMiIHkxPSIyMDciIHkyPSIyMDciLz48bGluZSBzdHlsZT0ic3Ryb2tlOiMxODE4MTg7c3Ryb2tlLXdpZHRoOjAuNTsiIHgxPSIyMTgiIHgyPSI0MzMiIHkxPSIyMTUiIHkyPSIyMTUiLz48ZWxsaXBzZSBjeD0iMjI4IiBjeT0iMjI3Ljk5MjIiIGZpbGw9IiM4NEJFODQiIHJ4PSIzIiByeT0iMyIgc3R5bGU9InN0cm9rZTojMDM4MDQ4O3N0cm9rZS13aWR0aDoxLjA7Ii8+PHRleHQgZmlsbD0iIzAwMDAwMCIgZm9udC1mYW1pbHk9InNhbnMtc2VyaWYiIGZvbnQtc2l6ZT0iMTQiIGxlbmd0aEFkanVzdD0ic3BhY2luZyIgdGV4dExlbmd0aD0iMTM1IiB4PSIyMzciIHk9IjIzMi4yMzQ0Ij5oYW5kbGVSRVNUUmVxdWVzdCgpPC90ZXh0PjxlbGxpcHNlIGN4PSIyMjgiIGN5PSIyNDIuOTc2NiIgZmlsbD0iIzg0QkU4NCIgcng9IjMiIHJ5PSIzIiBzdHlsZT0ic3Ryb2tlOiMwMzgwNDg7c3Ryb2tlLXdpZHRoOjEuMDsiLz48dGV4dCBmaWxsPSIjMDAwMDAwIiBmb250LWZhbWlseT0ic2Fucy1zZXJpZiIgZm9udC1zaXplPSIxNCIgbGVuZ3RoQWRqdXN0PSJzcGFjaW5nIiB0ZXh0TGVuZ3RoPSIxNTYiIHg9IjIzNyIgeT0iMjQ3LjIxODgiPmhhbmRsZUdyYXBoUUxSZXF1ZXN0KCk8L3RleHQ+PGVsbGlwc2UgY3g9IjIyOCIgY3k9IjI1Ny45NjA5IiBmaWxsPSIjODRCRTg0IiByeD0iMyIgcnk9IjMiIHN0eWxlPSJzdHJva2U6IzAzODA0ODtzdHJva2Utd2lkdGg6MS4wOyIvPjx0ZXh0IGZpbGw9IiMwMDAwMDAiIGZvbnQtZmFtaWx5PSJzYW5zLXNlcmlmIiBmb250LXNpemU9IjE0IiBsZW5ndGhBZGp1c3Q9InNwYWNpbmciIHRleHRMZW5ndGg9IjE5MSIgeD0iMjM3IiB5PSIyNjIuMjAzMSI+aGFuZGxlV2ViU29ja2V0Q29ubmVjdGlvbigpPC90ZXh0PjwvZz48IS0tY2xhc3MgRGF0YWJhc2UtLT48ZyBpZD0iZWxlbV9EYXRhYmFzZSI+PHJlY3QgY29kZUxpbmU9IjIwIiBmaWxsPSIjRjFGMUYxIiBoZWlnaHQ9Ijc3Ljk2ODgiIGlkPSJEYXRhYmFzZSIgcng9IjIuNSIgcnk9IjIuNSIgc3R5bGU9InN0cm9rZTojMTgxODE4O3N0cm9rZS13aWR0aDowLjU7IiB3aWR0aD0iMTg5IiB4PSI0NjkiIHk9IjE4Mi41Ii8+PGVsbGlwc2UgY3g9IjUzMS4yNSIgY3k9IjE5OC41IiBmaWxsPSIjQUREMUIyIiByeD0iMTEiIHJ5PSIxMSIgc3R5bGU9InN0cm9rZTojMTgxODE4O3N0cm9rZS13aWR0aDoxLjA7Ii8+PHBhdGggZD0iTTUyOC44NzUsMjAyLjc1IEw1MjguODc1LDIwNC41IEw1MzMuODEyNSwyMDQuNSBMNTMzLjgxMjUsMjAyLjc1IEw1MjguODc1LDIwMi43NSBaIE01MjkuNTYyNSwyMDMuNDM3NSBRNTI5LjU2MjUsMjAzLjQzNzUgNTI5LjU2MjUsMTk0LjI1IEw1MjcuODEyNSwxOTQuMjUgUTUyNy44MTI1LDE5NC4yNSA1MjcuODEyNSwyMDMuNDM3NSBMNTI5LjU2MjUsMjAzLjQzNzUgWiBNNTMzLjEyNSwyMDMuNDM3NSBMNTM0Ljg3NSwyMDMuNDM3NSBRNTM0Ljg3NSwyMDMuNDM3NSA1MzQuODc1LDIwMC42MjUgTDUzMy4xMjUsMjAwLjYyNSBRNTMzLjEyNSwyMDAuNjI1IDUzMy4xMjUsMjAzLjQzNzUgWiBNNTMzLjEyNSwxOTQuMjUgUTUzMy4xMjUsMTk0LjI1IDUzMy4xMjUsMTk3LjA2MjUgTDUzNC44NzUsMTk3LjA2MjUgUTUzNC44NzUsMTk3LjA2MjUgNTM0Ljg3NSwxOTQuMjUgTDUzMy4xMjUsMTk0LjI1IFogTTUyOC44NzUsMTk0LjkzNzUgTDUzMy44MTI1LDE5NC45Mzc1IEw1MzMuODEyNSwxOTMuMTg3NSBMNTI4Ljg3NSwxOTMuMTg3NSBMNTI4Ljg3NSwxOTQuOTM3NSBaICIgZmlsbD0iIzAwMDAwMCIvPjx0ZXh0IGZpbGw9IiMwMDAwMDAiIGZvbnQtZmFtaWx5PSJzYW5zLXNlcmlmIiBmb250LXNpemU9IjE0IiBsZW5ndGhBZGp1c3Q9InNwYWNpbmciIHRleHRMZW5ndGg9IjU2IiB4PSI1NTEuNzUiIHk9IjIwNC4yNDIyIj5EYXRhYmFzZTwvdGV4dD48bGluZSBzdHlsZT0ic3Ryb2tlOiMxODE4MTg7c3Ryb2tlLXdpZHRoOjAuNTsiIHgxPSI0NzAiIHgyPSI2NTciIHkxPSIyMTQuNSIgeTI9IjIxNC41Ii8+PGxpbmUgc3R5bGU9InN0cm9rZTojMTgxODE4O3N0cm9rZS13aWR0aDowLjU7IiB4MT0iNDcwIiB4Mj0iNjU3IiB5MT0iMjIyLjUiIHkyPSIyMjIuNSIvPjxlbGxpcHNlIGN4PSI0ODAiIGN5PSIyMzUuNDkyMiIgZmlsbD0iIzg0QkU4NCIgcng9IjMiIHJ5PSIzIiBzdHlsZT0ic3Ryb2tlOiMwMzgwNDg7c3Ryb2tlLXdpZHRoOjEuMDsiLz48dGV4dCBmaWxsPSIjMDAwMDAwIiBmb250LWZhbWlseT0ic2Fucy1zZXJpZiIgZm9udC1zaXplPSIxNCIgbGVuZ3RoQWRqdXN0PSJzcGFjaW5nIiB0ZXh0TGVuZ3RoPSIxNDIiIHg9IjQ4OSIgeT0iMjM5LjczNDQiPnN0b3JlRGFzaGJvYXJkRGF0YSgpPC90ZXh0PjxlbGxpcHNlIGN4PSI0ODAiIGN5PSIyNTAuNDc2NiIgZmlsbD0iIzg0QkU4NCIgcng9IjMiIHJ5PSIzIiBzdHlsZT0ic3Ryb2tlOiMwMzgwNDg7c3Ryb2tlLXdpZHRoOjEuMDsiLz48dGV4dCBmaWxsPSIjMDAwMDAwIiBmb250LWZhbWlseT0ic2Fucy1zZXJpZiIgZm9udC1zaXplPSIxNCIgbGVuZ3RoQWRqdXN0PSJzcGFjaW5nIiB0ZXh0TGVuZ3RoPSIxNjMiIHg9IjQ4OSIgeT0iMjU0LjcxODgiPnJldHJpZXZlRGFzaGJvYXJkRGF0YSgpPC90ZXh0PjwvZz48IS0tY2xhc3MgQ2FjaGUtLT48ZyBpZD0iZWxlbV9DYWNoZSI+PHJlY3QgY29kZUxpbmU9IjI1IiBmaWxsPSIjRjFGMUYxIiBoZWlnaHQ9Ijc3Ljk2ODgiIGlkPSJDYWNoZSIgcng9IjIuNSIgcnk9IjIuNSIgc3R5bGU9InN0cm9rZTojMTgxODE4O3N0cm9rZS13aWR0aDowLjU7IiB3aWR0aD0iMTQwIiB4PSI2OTMuNSIgeT0iMTgyLjUiLz48ZWxsaXBzZSBjeD0iNzQxLjc1IiBjeT0iMTk4LjUiIGZpbGw9IiNBREQxQjIiIHJ4PSIxMSIgcnk9IjExIiBzdHlsZT0ic3Ryb2tlOiMxODE4MTg7c3Ryb2tlLXdpZHRoOjEuMDsiLz48cGF0aCBkPSJNNzM5LjM3NSwyMDIuNzUgTDczOS4zNzUsMjA0LjUgTDc0NC4zMTI1LDIwNC41IEw3NDQuMzEyNSwyMDIuNzUgTDczOS4zNzUsMjAyLjc1IFogTTc0MC4wNjI1LDIwMy40Mzc1IFE3NDAuMDYyNSwyMDMuNDM3NSA3NDAuMDYyNSwxOTQuMjUgTDczOC4zMTI1LDE5NC4yNSBRNzM4LjMxMjUsMTk0LjI1IDczOC4zMTI1LDIwMy40Mzc1IEw3NDAuMDYyNSwyMDMuNDM3NSBaIE03NDMuNjI1LDIwMy40Mzc1IEw3NDUuMzc1LDIwMy40Mzc1IFE3NDUuMzc1LDIwMy40Mzc1IDc0NS4zNzUsMjAwLjYyNSBMNzQzLjYyNSwyMDAuNjI1IFE3NDMuNjI1LDIwMC42MjUgNzQzLjYyNSwyMDMuNDM3NSBaIE03NDMuNjI1LDE5NC4yNSBRNzQzLjYyNSwxOTQuMjUgNzQzLjYyNSwxOTcuMDYyNSBMNzQ1LjM3NSwxOTcuMDYyNSBRNzQ1LjM3NSwxOTcuMDYyNSA3NDUuMzc1LDE5NC4yNSBMNzQzLjYyNSwxOTQuMjUgWiBNNzM5LjM3NSwxOTQuOTM3NSBMNzQ0LjMxMjUsMTk0LjkzNzUgTDc0NC4zMTI1LDE5My4xODc1IEw3MzkuMzc1LDE5My4xODc1IEw3MzkuMzc1LDE5NC45Mzc1IFogIiBmaWxsPSIjMDAwMDAwIi8+PHRleHQgZmlsbD0iIzAwMDAwMCIgZm9udC1mYW1pbHk9InNhbnMtc2VyaWYiIGZvbnQtc2l6ZT0iMTQiIGxlbmd0aEFkanVzdD0ic3BhY2luZyIgdGV4dExlbmd0aD0iMzUiIHg9Ijc2Mi4yNSIgeT0iMjA0LjI0MjIiPkNhY2hlPC90ZXh0PjxsaW5lIHN0eWxlPSJzdHJva2U6IzE4MTgxODtzdHJva2Utd2lkdGg6MC41OyIgeDE9IjY5NC41IiB4Mj0iODMyLjUiIHkxPSIyMTQuNSIgeTI9IjIxNC41Ii8+PGxpbmUgc3R5bGU9InN0cm9rZTojMTgxODE4O3N0cm9rZS13aWR0aDowLjU7IiB4MT0iNjk0LjUiIHgyPSI4MzIuNSIgeTE9IjIyMi41IiB5Mj0iMjIyLjUiLz48ZWxsaXBzZSBjeD0iNzA0LjUiIGN5PSIyMzUuNDkyMiIgZmlsbD0iIzg0QkU4NCIgcng9IjMiIHJ5PSIzIiBzdHlsZT0ic3Ryb2tlOiMwMzgwNDg7c3Ryb2tlLXdpZHRoOjEuMDsiLz48dGV4dCBmaWxsPSIjMDAwMDAwIiBmb250LWZhbWlseT0ic2Fucy1zZXJpZiIgZm9udC1zaXplPSIxNCIgbGVuZ3RoQWRqdXN0PSJzcGFjaW5nIiB0ZXh0TGVuZ3RoPSIxMTQiIHg9IjcxMy41IiB5PSIyMzkuNzM0NCI+Y2FjaGVEYXNoYm9hcmQoKTwvdGV4dD48ZWxsaXBzZSBjeD0iNzA0LjUiIGN5PSIyNTAuNDc2NiIgZmlsbD0iIzg0QkU4NCIgcng9IjMiIHJ5PSIzIiBzdHlsZT0ic3Ryb2tlOiMwMzgwNDg7c3Ryb2tlLXdpZHRoOjEuMDsiLz48dGV4dCBmaWxsPSIjMDAwMDAwIiBmb250LWZhbWlseT0ic2Fucy1zZXJpZiIgZm9udC1zaXplPSIxNCIgbGVuZ3RoQWRqdXN0PSJzcGFjaW5nIiB0ZXh0TGVuZ3RoPSI4NiIgeD0iNzEzLjUiIHk9IjI1NC43MTg4Ij5ldmljdENhY2hlKCk8L3RleHQ+PC9nPjwhLS1jbGFzcyBTZWN1cml0eS0tPjxnIGlkPSJlbGVtX1NlY3VyaXR5Ij48cmVjdCBjb2RlTGluZT0iMzAiIGZpbGw9IiNGMUYxRjEiIGhlaWdodD0iNzcuOTY4OCIgaWQ9IlNlY3VyaXR5IiByeD0iMi41IiByeT0iMi41IiBzdHlsZT0ic3Ryb2tlOiMxODE4MTg7c3Ryb2tlLXdpZHRoOjAuNTsiIHdpZHRoPSIxNTQiIHg9IjM2Ny41IiB5PSIzMjgiLz48ZWxsaXBzZSBjeD0iNDEyLjI1IiBjeT0iMzQ0IiBmaWxsPSIjQUREMUIyIiByeD0iMTEiIHJ5PSIxMSIgc3R5bGU9InN0cm9rZTojMTgxODE4O3N0cm9rZS13aWR0aDoxLjA7Ii8+PHBhdGggZD0iTTQwOS44NzUsMzQ4LjI1IEw0MDkuODc1LDM1MCBMNDE0LjgxMjUsMzUwIEw0MTQuODEyNSwzNDguMjUgTDQwOS44NzUsMzQ4LjI1IFogTTQxMC41NjI1LDM0OC45Mzc1IFE0MTAuNTYyNSwzNDguOTM3NSA0MTAuNTYyNSwzMzkuNzUgTDQwOC44MTI1LDMzOS43NSBRNDA4LjgxMjUsMzM5Ljc1IDQwOC44MTI1LDM0OC45Mzc1IEw0MTAuNTYyNSwzNDguOTM3NSBaIE00MTQuMTI1LDM0OC45Mzc1IEw0MTUuODc1LDM0OC45Mzc1IFE0MTUuODc1LDM0OC45Mzc1IDQxNS44NzUsMzQ2LjEyNSBMNDE0LjEyNSwzNDYuMTI1IFE0MTQuMTI1LDM0Ni4xMjUgNDE0LjEyNSwzNDguOTM3NSBaIE00MTQuMTI1LDMzOS43NSBRNDE0LjEyNSwzMzkuNzUgNDE0LjEyNSwzNDIuNTYyNSBMNDE1Ljg3NSwzNDIuNTYyNSBRNDE1Ljg3NSwzNDIuNTYyNSA0MTUuODc1LDMzOS43NSBMNDE0LjEyNSwzMzkuNzUgWiBNNDA5Ljg3NSwzNDAuNDM3NSBMNDE0LjgxMjUsMzQwLjQzNzUgTDQxNC44MTI1LDMzOC42ODc1IEw0MDkuODc1LDMzOC42ODc1IEw0MDkuODc1LDM0MC40Mzc1IFogIiBmaWxsPSIjMDAwMDAwIi8+PHRleHQgZmlsbD0iIzAwMDAwMCIgZm9udC1mYW1pbHk9InNhbnMtc2VyaWYiIGZvbnQtc2l6ZT0iMTQiIGxlbmd0aEFkanVzdD0ic3BhY2luZyIgdGV4dExlbmd0aD0iNTYiIHg9IjQzMi43NSIgeT0iMzQ5Ljc0MjIiPlNlY3VyaXR5PC90ZXh0PjxsaW5lIHN0eWxlPSJzdHJva2U6IzE4MTgxODtzdHJva2Utd2lkdGg6MC41OyIgeDE9IjM2OC41IiB4Mj0iNTIwLjUiIHkxPSIzNjAiIHkyPSIzNjAiLz48bGluZSBzdHlsZT0ic3Ryb2tlOiMxODE4MTg7c3Ryb2tlLXdpZHRoOjAuNTsiIHgxPSIzNjguNSIgeDI9IjUyMC41IiB5MT0iMzY4IiB5Mj0iMzY4Ii8+PGVsbGlwc2UgY3g9IjM3OC41IiBjeT0iMzgwLjk5MjIiIGZpbGw9IiM4NEJFODQiIHJ4PSIzIiByeT0iMyIgc3R5bGU9InN0cm9rZTojMDM4MDQ4O3N0cm9rZS13aWR0aDoxLjA7Ii8+PHRleHQgZmlsbD0iIzAwMDAwMCIgZm9udC1mYW1pbHk9InNhbnMtc2VyaWYiIGZvbnQtc2l6ZT0iMTQiIGxlbmd0aEFkanVzdD0ic3BhY2luZyIgdGV4dExlbmd0aD0iMTI4IiB4PSIzODcuNSIgeT0iMzg1LjIzNDQiPmF1dGhlbnRpY2F0ZVVzZXIoKTwvdGV4dD48ZWxsaXBzZSBjeD0iMzc4LjUiIGN5PSIzOTUuOTc2NiIgZmlsbD0iIzg0QkU4NCIgcng9IjMiIHJ5PSIzIiBzdHlsZT0ic3Ryb2tlOiMwMzgwNDg7c3Ryb2tlLXdpZHRoOjEuMDsiLz48dGV4dCBmaWxsPSIjMDAwMDAwIiBmb250LWZhbWlseT0ic2Fucy1zZXJpZiIgZm9udC1zaXplPSIxNCIgbGVuZ3RoQWRqdXN0PSJzcGFjaW5nIiB0ZXh0TGVuZ3RoPSIxMjEiIHg9IjM4Ny41IiB5PSI0MDAuMjE4OCI+YXV0aG9yaXplQWNjZXNzKCk8L3RleHQ+PC9nPjwhLS1saW5rIERhc2hib2FyZFNlcnZpY2UgdG8gV2lkZ2V0TGlicmFyeS0tPjxnIGlkPSJsaW5rX0Rhc2hib2FyZFNlcnZpY2VfV2lkZ2V0TGlicmFyeSI+PHBhdGggY29kZUxpbmU9IjM1IiBkPSJNMzcwLjcsOTUuNDIgQzMxNS42NSwxMjAuMzUgMjQ1LjcwNTcsMTUyLjAyNDggMTg3LjU4NTcsMTc4LjM0NDggIiBmaWxsPSJub25lIiBpZD0iRGFzaGJvYXJkU2VydmljZS10by1XaWRnZXRMaWJyYXJ5IiBzdHlsZT0ic3Ryb2tlOiMxODE4MTg7c3Ryb2tlLXdpZHRoOjEuMDsiLz48cG9seWdvbiBmaWxsPSIjMTgxODE4IiBwb2ludHM9IjE4Mi4xMiwxODAuODIsMTkxLjk2ODYsMTgwLjc1MSwxODYuNjc0NywxNzguNzU3NCwxODguNjY4NCwxNzMuNDYzNSwxODIuMTIsMTgwLjgyIiBzdHlsZT0ic3Ryb2tlOiMxODE4MTg7c3Ryb2tlLXdpZHRoOjEuMDsiLz48L2c+PCEtLWxpbmsgRGFzaGJvYXJkU2VydmljZSB0byBBUElTZXJ2aWNlLS0+PGcgaWQ9ImxpbmtfRGFzaGJvYXJkU2VydmljZV9BUElTZXJ2aWNlIj48cGF0aCBjb2RlTGluZT0iMzYiIGQ9Ik00MDQuNTQsMTE1LjIyIEMzOTAuMDMsMTM0LjU1IDM3Ny4zNjI1LDE1MS40MjE5IDM2My4zODI1LDE3MC4wNDE5ICIgZmlsbD0ibm9uZSIgaWQ9IkRhc2hib2FyZFNlcnZpY2UtdG8tQVBJU2VydmljZSIgc3R5bGU9InN0cm9rZTojMTgxODE4O3N0cm9rZS13aWR0aDoxLjA7Ii8+PHBvbHlnb24gZmlsbD0iIzE4MTgxOCIgcG9pbnRzPSIzNTkuNzgsMTc0Ljg0LDM2OC4zODI1LDE3MC4wNDQ0LDM2Mi43ODIxLDE3MC44NDE1LDM2MS45ODQ5LDE2NS4yNDExLDM1OS43OCwxNzQuODQiIHN0eWxlPSJzdHJva2U6IzE4MTgxODtzdHJva2Utd2lkdGg6MS4wOyIvPjwvZz48IS0tbGluayBEYXNoYm9hcmRTZXJ2aWNlIHRvIERhdGFiYXNlLS0+PGcgaWQ9ImxpbmtfRGFzaGJvYXJkU2VydmljZV9EYXRhYmFzZSI+PHBhdGggY29kZUxpbmU9IjM3IiBkPSJNNDg0LjQ2LDExNS4yMiBDNTAwLjkzLDEzNy4xNiA1MTYuMDU5MiwxNTcuMzAwNiA1MzEuMTM5MiwxNzcuNDAwNiAiIGZpbGw9Im5vbmUiIGlkPSJEYXNoYm9hcmRTZXJ2aWNlLXRvLURhdGFiYXNlIiBzdHlsZT0ic3Ryb2tlOiMxODE4MTg7c3Ryb2tlLXdpZHRoOjEuMDsiLz48cG9seWdvbiBmaWxsPSIjMTgxODE4IiBwb2ludHM9IjUzNC43NCwxODIuMiw1MzIuNTM4NSwxNzIuNjAwNCw1MzEuNzM5NCwxNzguMjAwNSw1MjYuMTM5MiwxNzcuNDAxNCw1MzQuNzQsMTgyLjIiIHN0eWxlPSJzdHJva2U6IzE4MTgxODtzdHJva2Utd2lkdGg6MS4wOyIvPjwvZz48IS0tbGluayBEYXNoYm9hcmRTZXJ2aWNlIHRvIENhY2hlLS0+PGcgaWQ9ImxpbmtfRGFzaGJvYXJkU2VydmljZV9DYWNoZSI+PHBhdGggY29kZUxpbmU9IjM4IiBkPSJNNTE4LjA1LDk3LjQ2IEM1NjMuNTQsMTE5LjUyIDYyMy4wNSwxNDguNjIgNjc1LjUsMTc1IEM2ODEuMzQsMTc3Ljk0IDY4Mi4wMzgzLDE3OC4yNjc1IDY4OC4wOTgzLDE4MS4zNjc1ICIgZmlsbD0ibm9uZSIgaWQ9IkRhc2hib2FyZFNlcnZpY2UtdG8tQ2FjaGUiIHN0eWxlPSJzdHJva2U6IzE4MTgxODtzdHJva2Utd2lkdGg6MS4wOyIvPjxwb2x5Z29uIGZpbGw9IiMxODE4MTgiIHBvaW50cz0iNjkzLjQ0LDE4NC4xLDY4Ny4yNDkyLDE3Ni40NDAxLDY4OC45ODg2LDE4MS44MjI5LDY4My42MDU4LDE4My41NjIzLDY5My40NCwxODQuMSIgc3R5bGU9InN0cm9rZTojMTgxODE4O3N0cm9rZS13aWR0aDoxLjA7Ii8+PC9nPjwhLS1saW5rIEFQSVNlcnZpY2UgdG8gU2VjdXJpdHktLT48ZyBpZD0ibGlua19BUElTZXJ2aWNlX1NlY3VyaXR5Ij48cGF0aCBjb2RlTGluZT0iNDAiIGQ9Ik0zNjMuNDgsMjY4LjMgQzM3OS40LDI4Ny40OSAzOTMuODU5NiwzMDQuOTMxOCA0MDkuMDI5NiwzMjMuMjIxOCAiIGZpbGw9Im5vbmUiIGlkPSJBUElTZXJ2aWNlLXRvLVNlY3VyaXR5IiBzdHlsZT0ic3Ryb2tlOiMxODE4MTg7c3Ryb2tlLXdpZHRoOjEuMDsiLz48cG9seWdvbiBmaWxsPSIjMTgxODE4IiBwb2ludHM9IjQxMi44NiwzMjcuODQsNDEwLjE5MzIsMzE4LjM1OTEsNDA5LjY2OCwzMjMuOTkxNSw0MDQuMDM1NiwzMjMuNDY2Myw0MTIuODYsMzI3Ljg0IiBzdHlsZT0ic3Ryb2tlOiMxODE4MTg7c3Ryb2tlLXdpZHRoOjEuMDsiLz48L2c+PCEtLWxpbmsgRGF0YWJhc2UgdG8gU2VjdXJpdHktLT48ZyBpZD0ibGlua19EYXRhYmFzZV9TZWN1cml0eSI+PHBhdGggY29kZUxpbmU9IjQxIiBkPSJNNTMxLjkyLDI2MC41OCBDNTE0LjcxLDI4MS4zNCA0OTcuMjkxLDMwMi4zNDIzIDQ4MC4wNTEsMzIzLjEyMjMgIiBmaWxsPSJub25lIiBpZD0iRGF0YWJhc2UtdG8tU2VjdXJpdHkiIHN0eWxlPSJzdHJva2U6IzE4MTgxODtzdHJva2Utd2lkdGg6MS4wOyIvPjxwb2x5Z29uIGZpbGw9IiMxODE4MTgiIHBvaW50cz0iNDc2LjIyLDMyNy43NCw0ODUuMDQ1LDMyMy4zNjc1LDQ3OS40MTI1LDMyMy44OTE5LDQ3OC44ODgxLDMxOC4yNTk0LDQ3Ni4yMiwzMjcuNzQiIHN0eWxlPSJzdHJva2U6IzE4MTgxODtzdHJva2Utd2lkdGg6MS4wOyIvPjwvZz48IS0tU1JDPVtSUDUxSXlHbTQ4TmwtSEt6QWg5X0dJWXg4aThVVEFsaVVQZXlSQjBjd3NIUUtGNl9jeE9xaEpRdnZOa0pEdmF0a2dLR1lXRTVmbFI0ZldCdExnRnVMYUt5RHZmMVdnSFVOSy11a3ZXU0RjWUhtUS1HRFZqSEllekRwelA0d01YaDlsd1NFcVBJemNIUmdiakMxTTdzOE1DY0NXRjZrLSAtSE0zOGs3bl8tcFQ2R0NvckVUek5wMkh5VEdoQU9YN2tjSV9EcXA2ZmRyOU5OUnYyelRtdlFoN1ZoTldTSWdZY2FKYTR5Qm40Q3dsOVJPT2otOG9RaEZVYmNJTnd1UkE5NDc0aDZrbE4zMmhmWkFvYjN3Z0kxNHdsWmFidTJFMEtPa01WeFhMOWhYMzFQUjVRX3N6dC1OS3MtUDBhdmh5XzF2RExuMWdMTWNuaGVGOFhBZ1F4ZkJtMDBdLS0+PC9nPjwvc3ZnPg==;" vertex="1" parent="1">
            <mxGeometry x="290" y="600" width="840" height="412" as="geometry" />
          </mxCell>
        </UserObject>
        <mxCell id="P3c6qDh03aw6tttAvGT_-6" value="Class diagram" style="text;html=1;align=center;verticalAlign=middle;whiteSpace=wrap;rounded=0;" vertex="1" parent="1">
          <mxGeometry x="570" y="540" width="60" height="30" as="geometry" />
        </mxCell>
        <UserObject label="" plantUmlData="{&#xa;  &quot;data&quot;: &quot;@startuml\n\nactor User\nparticipant \&quot;Dashboard UI\&quot; as UI\nparticipant \&quot;Dashboard Service\&quot; as DS\nparticipant \&quot;API Gateway\&quot; as API\nparticipant \&quot;Database\&quot; as DB\nparticipant \&quot;Cache\&quot; as Cache\n\nUser -&gt; UI: Request Dashboard\nUI -&gt; API: API Call (GET /dashboard/{id})\nAPI -&gt; Cache: Check if dashboard exists\nalt Cache Hit\n    Cache -&gt; API: Return Cached Data\n    API -&gt; UI: Send Dashboard Data\nelse Cache Miss\n    API -&gt; DS: Fetch Dashboard Data\n    DS -&gt; DB: Query Dashboard Data\n    DB -&gt; DS: Return Data\n    DS -&gt; Cache: Store in Cache\n    DS -&gt; API: Send Data\n    API -&gt; UI: Send Dashboard Data\nend\n\nUser -&gt; UI: Modify Dashboard\nUI -&gt; API: API Call (POST /dashboard/update)\nAPI -&gt; DS: Update Dashboard\nDS -&gt; DB: Save Changes\nDS -&gt; Cache: Update Cache\nAPI -&gt; UI: Confirm Update\n\n@enduml\n&quot;,&#xa;  &quot;format&quot;: &quot;svg&quot;&#xa;}" id="P3c6qDh03aw6tttAvGT_-8">
          <mxCell style="shape=image;noLabel=1;verticalAlign=top;aspect=fixed;imageAspect=0;image=data:image/svg+xml,PD94bWwgdmVyc2lvbj0iMS4wIiBlbmNvZGluZz0idXMtYXNjaWkiIHN0YW5kYWxvbmU9Im5vIj8+PHN2ZyB4bWxucz0iaHR0cDovL3d3dy53My5vcmcvMjAwMC9zdmciIHhtbG5zOnhsaW5rPSJodHRwOi8vd3d3LnczLm9yZy8xOTk5L3hsaW5rIiBjb250ZW50U3R5bGVUeXBlPSJ0ZXh0L2NzcyIgaGVpZ2h0PSI2OTdweCIgcHJlc2VydmVBc3BlY3RSYXRpbz0ibm9uZSIgc3R5bGU9IndpZHRoOjY4OHB4O2hlaWdodDo2OTdweDtiYWNrZ3JvdW5kOiNGRkZGRkY7IiB2ZXJzaW9uPSIxLjEiIHZpZXdCb3g9IjAgMCA2ODggNjk3IiB3aWR0aD0iNjg4cHgiIHpvb21BbmRQYW49Im1hZ25pZnkiPjxkZWZzLz48Zz48cmVjdCBmaWxsPSJub25lIiBoZWlnaHQ9IjI1MyIgc3R5bGU9InN0cm9rZTojMDAwMDAwO3N0cm9rZS13aWR0aDoxLjU7IiB3aWR0aD0iNTc2IiB4PSIxMDUiIHk9IjE4MC43MjY2Ii8+PGxpbmUgc3R5bGU9InN0cm9rZTojMTgxODE4O3N0cm9rZS13aWR0aDowLjU7c3Ryb2tlLWRhc2hhcnJheTo1LjAsNS4wOyIgeDE9IjIyIiB4Mj0iMjIiIHkxPSI3OS45ODQ0IiB5Mj0iNjE4LjIxMDkiLz48bGluZSBzdHlsZT0ic3Ryb2tlOiMxODE4MTg7c3Ryb2tlLXdpZHRoOjAuNTtzdHJva2UtZGFzaGFycmF5OjUuMCw1LjA7IiB4MT0iMTY0IiB4Mj0iMTY0IiB5MT0iNzkuOTg0NCIgeTI9IjYxOC4yMTA5Ii8+PGxpbmUgc3R5bGU9InN0cm9rZTojMTgxODE4O3N0cm9rZS13aWR0aDowLjU7c3Ryb2tlLWRhc2hhcnJheTo1LjAsNS4wOyIgeDE9IjI4OSIgeDI9IjI4OSIgeTE9Ijc5Ljk4NDQiIHkyPSI2MTguMjEwOSIvPjxsaW5lIHN0eWxlPSJzdHJva2U6IzE4MTgxODtzdHJva2Utd2lkdGg6MC41O3N0cm9rZS1kYXNoYXJyYXk6NS4wLDUuMDsiIHgxPSI0NTEuNSIgeDI9IjQ1MS41IiB5MT0iNzkuOTg0NCIgeTI9IjYxOC4yMTA5Ii8+PGxpbmUgc3R5bGU9InN0cm9rZTojMTgxODE4O3N0cm9rZS13aWR0aDowLjU7c3Ryb2tlLWRhc2hhcnJheTo1LjAsNS4wOyIgeDE9IjU0Mi41IiB4Mj0iNTQyLjUiIHkxPSI3OS45ODQ0IiB5Mj0iNjE4LjIxMDkiLz48bGluZSBzdHlsZT0ic3Ryb2tlOiMxODE4MTg7c3Ryb2tlLXdpZHRoOjAuNTtzdHJva2UtZGFzaGFycmF5OjUuMCw1LjA7IiB4MT0iNjQ2IiB4Mj0iNjQ2IiB5MT0iNzkuOTg0NCIgeTI9IjYxOC4yMTA5Ii8+PHRleHQgZmlsbD0iIzAwMDAwMCIgZm9udC1mYW1pbHk9InNhbnMtc2VyaWYiIGZvbnQtc2l6ZT0iMTQiIGxlbmd0aEFkanVzdD0ic3BhY2luZyIgdGV4dExlbmd0aD0iMjgiIHg9IjUiIHk9Ijc4LjIzNDQiPlVzZXI8L3RleHQ+PGVsbGlwc2UgY3g9IjIyIiBjeT0iMTMuNSIgZmlsbD0iI0UyRTJGMCIgcng9IjgiIHJ5PSI4IiBzdHlsZT0ic3Ryb2tlOiMxODE4MTg7c3Ryb2tlLXdpZHRoOjAuNTsiLz48cGF0aCBkPSJNMjIsMjEuNSBMMjIsNDguNSBNOSwyOS41IEwzNSwyOS41IE0yMiw0OC41IEw5LDYzLjUgTTIyLDQ4LjUgTDM1LDYzLjUgIiBmaWxsPSJub25lIiBzdHlsZT0ic3Ryb2tlOiMxODE4MTg7c3Ryb2tlLXdpZHRoOjAuNTsiLz48dGV4dCBmaWxsPSIjMDAwMDAwIiBmb250LWZhbWlseT0ic2Fucy1zZXJpZiIgZm9udC1zaXplPSIxNCIgbGVuZ3RoQWRqdXN0PSJzcGFjaW5nIiB0ZXh0TGVuZ3RoPSIyOCIgeD0iNSIgeT0iNjMwLjQ0NTMiPlVzZXI8L3RleHQ+PGVsbGlwc2UgY3g9IjIyIiBjeT0iNjQwLjY5NTMiIGZpbGw9IiNFMkUyRjAiIHJ4PSI4IiByeT0iOCIgc3R5bGU9InN0cm9rZTojMTgxODE4O3N0cm9rZS13aWR0aDowLjU7Ii8+PHBhdGggZD0iTTIyLDY0OC42OTUzIEwyMiw2NzUuNjk1MyBNOSw2NTYuNjk1MyBMMzUsNjU2LjY5NTMgTTIyLDY3NS42OTUzIEw5LDY5MC42OTUzIE0yMiw2NzUuNjk1MyBMMzUsNjkwLjY5NTMgIiBmaWxsPSJub25lIiBzdHlsZT0ic3Ryb2tlOiMxODE4MTg7c3Ryb2tlLXdpZHRoOjAuNTsiLz48cmVjdCBmaWxsPSIjRTJFMkYwIiBoZWlnaHQ9IjI4Ljk4NDQiIHJ4PSIyLjUiIHJ5PSIyLjUiIHN0eWxlPSJzdHJva2U6IzE4MTgxODtzdHJva2Utd2lkdGg6MC41OyIgd2lkdGg9Ijk4IiB4PSIxMTUiIHk9IjUwIi8+PHRleHQgZmlsbD0iIzAwMDAwMCIgZm9udC1mYW1pbHk9InNhbnMtc2VyaWYiIGZvbnQtc2l6ZT0iMTQiIGxlbmd0aEFkanVzdD0ic3BhY2luZyIgdGV4dExlbmd0aD0iODQiIHg9IjEyMiIgeT0iNzAuMjM0NCI+RGFzaGJvYXJkIFVJPC90ZXh0PjxyZWN0IGZpbGw9IiNFMkUyRjAiIGhlaWdodD0iMjguOTg0NCIgcng9IjIuNSIgcnk9IjIuNSIgc3R5bGU9InN0cm9rZTojMTgxODE4O3N0cm9rZS13aWR0aDowLjU7IiB3aWR0aD0iOTgiIHg9IjExNSIgeT0iNjE3LjIxMDkiLz48dGV4dCBmaWxsPSIjMDAwMDAwIiBmb250LWZhbWlseT0ic2Fucy1zZXJpZiIgZm9udC1zaXplPSIxNCIgbGVuZ3RoQWRqdXN0PSJzcGFjaW5nIiB0ZXh0TGVuZ3RoPSI4NCIgeD0iMTIyIiB5PSI2MzcuNDQ1MyI+RGFzaGJvYXJkIFVJPC90ZXh0PjxyZWN0IGZpbGw9IiNFMkUyRjAiIGhlaWdodD0iMjguOTg0NCIgcng9IjIuNSIgcnk9IjIuNSIgc3R5bGU9InN0cm9rZTojMTgxODE4O3N0cm9rZS13aWR0aDowLjU7IiB3aWR0aD0iMTMzIiB4PSIyMjMiIHk9IjUwIi8+PHRleHQgZmlsbD0iIzAwMDAwMCIgZm9udC1mYW1pbHk9InNhbnMtc2VyaWYiIGZvbnQtc2l6ZT0iMTQiIGxlbmd0aEFkanVzdD0ic3BhY2luZyIgdGV4dExlbmd0aD0iMTE5IiB4PSIyMzAiIHk9IjcwLjIzNDQiPkRhc2hib2FyZCBTZXJ2aWNlPC90ZXh0PjxyZWN0IGZpbGw9IiNFMkUyRjAiIGhlaWdodD0iMjguOTg0NCIgcng9IjIuNSIgcnk9IjIuNSIgc3R5bGU9InN0cm9rZTojMTgxODE4O3N0cm9rZS13aWR0aDowLjU7IiB3aWR0aD0iMTMzIiB4PSIyMjMiIHk9IjYxNy4yMTA5Ii8+PHRleHQgZmlsbD0iIzAwMDAwMCIgZm9udC1mYW1pbHk9InNhbnMtc2VyaWYiIGZvbnQtc2l6ZT0iMTQiIGxlbmd0aEFkanVzdD0ic3BhY2luZyIgdGV4dExlbmd0aD0iMTE5IiB4PSIyMzAiIHk9IjYzNy40NDUzIj5EYXNoYm9hcmQgU2VydmljZTwvdGV4dD48cmVjdCBmaWxsPSIjRTJFMkYwIiBoZWlnaHQ9IjI4Ljk4NDQiIHJ4PSIyLjUiIHJ5PSIyLjUiIHN0eWxlPSJzdHJva2U6IzE4MTgxODtzdHJva2Utd2lkdGg6MC41OyIgd2lkdGg9IjkyIiB4PSI0MDUuNSIgeT0iNTAiLz48dGV4dCBmaWxsPSIjMDAwMDAwIiBmb250LWZhbWlseT0ic2Fucy1zZXJpZiIgZm9udC1zaXplPSIxNCIgbGVuZ3RoQWRqdXN0PSJzcGFjaW5nIiB0ZXh0TGVuZ3RoPSI3OCIgeD0iNDEyLjUiIHk9IjcwLjIzNDQiPkFQSSBHYXRld2F5PC90ZXh0PjxyZWN0IGZpbGw9IiNFMkUyRjAiIGhlaWdodD0iMjguOTg0NCIgcng9IjIuNSIgcnk9IjIuNSIgc3R5bGU9InN0cm9rZTojMTgxODE4O3N0cm9rZS13aWR0aDowLjU7IiB3aWR0aD0iOTIiIHg9IjQwNS41IiB5PSI2MTcuMjEwOSIvPjx0ZXh0IGZpbGw9IiMwMDAwMDAiIGZvbnQtZmFtaWx5PSJzYW5zLXNlcmlmIiBmb250LXNpemU9IjE0IiBsZW5ndGhBZGp1c3Q9InNwYWNpbmciIHRleHRMZW5ndGg9Ijc4IiB4PSI0MTIuNSIgeT0iNjM3LjQ0NTMiPkFQSSBHYXRld2F5PC90ZXh0PjxyZWN0IGZpbGw9IiNFMkUyRjAiIGhlaWdodD0iMjguOTg0NCIgcng9IjIuNSIgcnk9IjIuNSIgc3R5bGU9InN0cm9rZTojMTgxODE4O3N0cm9rZS13aWR0aDowLjU7IiB3aWR0aD0iNzAiIHg9IjUwNy41IiB5PSI1MCIvPjx0ZXh0IGZpbGw9IiMwMDAwMDAiIGZvbnQtZmFtaWx5PSJzYW5zLXNlcmlmIiBmb250LXNpemU9IjE0IiBsZW5ndGhBZGp1c3Q9InNwYWNpbmciIHRleHRMZW5ndGg9IjU2IiB4PSI1MTQuNSIgeT0iNzAuMjM0NCI+RGF0YWJhc2U8L3RleHQ+PHJlY3QgZmlsbD0iI0UyRTJGMCIgaGVpZ2h0PSIyOC45ODQ0IiByeD0iMi41IiByeT0iMi41IiBzdHlsZT0ic3Ryb2tlOiMxODE4MTg7c3Ryb2tlLXdpZHRoOjAuNTsiIHdpZHRoPSI3MCIgeD0iNTA3LjUiIHk9IjYxNy4yMTA5Ii8+PHRleHQgZmlsbD0iIzAwMDAwMCIgZm9udC1mYW1pbHk9InNhbnMtc2VyaWYiIGZvbnQtc2l6ZT0iMTQiIGxlbmd0aEFkanVzdD0ic3BhY2luZyIgdGV4dExlbmd0aD0iNTYiIHg9IjUxNC41IiB5PSI2MzcuNDQ1MyI+RGF0YWJhc2U8L3RleHQ+PHJlY3QgZmlsbD0iI0UyRTJGMCIgaGVpZ2h0PSIyOC45ODQ0IiByeD0iMi41IiByeT0iMi41IiBzdHlsZT0ic3Ryb2tlOiMxODE4MTg7c3Ryb2tlLXdpZHRoOjAuNTsiIHdpZHRoPSI0OSIgeD0iNjIyIiB5PSI1MCIvPjx0ZXh0IGZpbGw9IiMwMDAwMDAiIGZvbnQtZmFtaWx5PSJzYW5zLXNlcmlmIiBmb250LXNpemU9IjE0IiBsZW5ndGhBZGp1c3Q9InNwYWNpbmciIHRleHRMZW5ndGg9IjM1IiB4PSI2MjkiIHk9IjcwLjIzNDQiPkNhY2hlPC90ZXh0PjxyZWN0IGZpbGw9IiNFMkUyRjAiIGhlaWdodD0iMjguOTg0NCIgcng9IjIuNSIgcnk9IjIuNSIgc3R5bGU9InN0cm9rZTojMTgxODE4O3N0cm9rZS13aWR0aDowLjU7IiB3aWR0aD0iNDkiIHg9IjYyMiIgeT0iNjE3LjIxMDkiLz48dGV4dCBmaWxsPSIjMDAwMDAwIiBmb250LWZhbWlseT0ic2Fucy1zZXJpZiIgZm9udC1zaXplPSIxNCIgbGVuZ3RoQWRqdXN0PSJzcGFjaW5nIiB0ZXh0TGVuZ3RoPSIzNSIgeD0iNjI5IiB5PSI2MzcuNDQ1MyI+Q2FjaGU8L3RleHQ+PHBvbHlnb24gZmlsbD0iIzE4MTgxOCIgcG9pbnRzPSIxNTIsMTA1Ljg5ODQsMTYyLDEwOS44OTg0LDE1MiwxMTMuODk4NCwxNTYsMTA5Ljg5ODQiIHN0eWxlPSJzdHJva2U6IzE4MTgxODtzdHJva2Utd2lkdGg6MS4wOyIvPjxsaW5lIHN0eWxlPSJzdHJva2U6IzE4MTgxODtzdHJva2Utd2lkdGg6MS4wOyIgeDE9IjIyIiB4Mj0iMTU4IiB5MT0iMTA5Ljg5ODQiIHkyPSIxMDkuODk4NCIvPjx0ZXh0IGZpbGw9IiMwMDAwMDAiIGZvbnQtZmFtaWx5PSJzYW5zLXNlcmlmIiBmb250LXNpemU9IjEzIiBsZW5ndGhBZGp1c3Q9InNwYWNpbmciIHRleHRMZW5ndGg9IjExOCIgeD0iMjkiIHk9IjEwNi4yNzM0Ij5SZXF1ZXN0IERhc2hib2FyZDwvdGV4dD48cG9seWdvbiBmaWxsPSIjMTgxODE4IiBwb2ludHM9IjQzOS41LDEzMy44MTI1LDQ0OS41LDEzNy44MTI1LDQzOS41LDE0MS44MTI1LDQ0My41LDEzNy44MTI1IiBzdHlsZT0ic3Ryb2tlOiMxODE4MTg7c3Ryb2tlLXdpZHRoOjEuMDsiLz48bGluZSBzdHlsZT0ic3Ryb2tlOiMxODE4MTg7c3Ryb2tlLXdpZHRoOjEuMDsiIHgxPSIxNjQiIHgyPSI0NDUuNSIgeTE9IjEzNy44MTI1IiB5Mj0iMTM3LjgxMjUiLz48dGV4dCBmaWxsPSIjMDAwMDAwIiBmb250LWZhbWlseT0ic2Fucy1zZXJpZiIgZm9udC1zaXplPSIxMyIgbGVuZ3RoQWRqdXN0PSJzcGFjaW5nIiB0ZXh0TGVuZ3RoPSIyMDEiIHg9IjE3MSIgeT0iMTM0LjE4NzUiPkFQSSBDYWxsIChHRVQgL2Rhc2hib2FyZC97aWR9KTwvdGV4dD48cG9seWdvbiBmaWxsPSIjMTgxODE4IiBwb2ludHM9IjYzNC41LDE2MS43MjY2LDY0NC41LDE2NS43MjY2LDYzNC41LDE2OS43MjY2LDYzOC41LDE2NS43MjY2IiBzdHlsZT0ic3Ryb2tlOiMxODE4MTg7c3Ryb2tlLXdpZHRoOjEuMDsiLz48bGluZSBzdHlsZT0ic3Ryb2tlOiMxODE4MTg7c3Ryb2tlLXdpZHRoOjEuMDsiIHgxPSI0NTEuNSIgeDI9IjY0MC41IiB5MT0iMTY1LjcyNjYiIHkyPSIxNjUuNzI2NiIvPjx0ZXh0IGZpbGw9IiMwMDAwMDAiIGZvbnQtZmFtaWx5PSJzYW5zLXNlcmlmIiBmb250LXNpemU9IjEzIiBsZW5ndGhBZGp1c3Q9InNwYWNpbmciIHRleHRMZW5ndGg9IjE3MSIgeD0iNDU4LjUiIHk9IjE2Mi4xMDE2Ij5DaGVjayBpZiBkYXNoYm9hcmQgZXhpc3RzPC90ZXh0PjxwYXRoIGQ9Ik0xMDUsMTgwLjcyNjYgTDE2OSwxODAuNzI2NiBMMTY5LDE4Ni42NDA2IEwxNTksMTk2LjY0MDYgTDEwNSwxOTYuNjQwNiBMMTA1LDE4MC43MjY2ICIgZmlsbD0iI0VFRUVFRSIgc3R5bGU9InN0cm9rZTojMDAwMDAwO3N0cm9rZS13aWR0aDoxLjU7Ii8+PHJlY3QgZmlsbD0ibm9uZSIgaGVpZ2h0PSIyNTMiIHN0eWxlPSJzdHJva2U6IzAwMDAwMDtzdHJva2Utd2lkdGg6MS41OyIgd2lkdGg9IjU3NiIgeD0iMTA1IiB5PSIxODAuNzI2NiIvPjx0ZXh0IGZpbGw9IiMwMDAwMDAiIGZvbnQtZmFtaWx5PSJzYW5zLXNlcmlmIiBmb250LXNpemU9IjEzIiBmb250LXdlaWdodD0iYm9sZCIgbGVuZ3RoQWRqdXN0PSJzcGFjaW5nIiB0ZXh0TGVuZ3RoPSIxOSIgeD0iMTIwIiB5PSIxOTQuMDE1NiI+YWx0PC90ZXh0Pjx0ZXh0IGZpbGw9IiMwMDAwMDAiIGZvbnQtZmFtaWx5PSJzYW5zLXNlcmlmIiBmb250LXNpemU9IjExIiBmb250LXdlaWdodD0iYm9sZCIgbGVuZ3RoQWRqdXN0PSJzcGFjaW5nIiB0ZXh0TGVuZ3RoPSI2NiIgeD0iMTg0IiB5PSIxOTMuMTI1Ij5bQ2FjaGUgSGl0XTwvdGV4dD48cG9seWdvbiBmaWxsPSIjMTgxODE4IiBwb2ludHM9IjQ2Mi41LDIxMi41NTQ3LDQ1Mi41LDIxNi41NTQ3LDQ2Mi41LDIyMC41NTQ3LDQ1OC41LDIxNi41NTQ3IiBzdHlsZT0ic3Ryb2tlOiMxODE4MTg7c3Ryb2tlLXdpZHRoOjEuMDsiLz48bGluZSBzdHlsZT0ic3Ryb2tlOiMxODE4MTg7c3Ryb2tlLXdpZHRoOjEuMDsiIHgxPSI0NTYuNSIgeDI9IjY0NS41IiB5MT0iMjE2LjU1NDciIHkyPSIyMTYuNTU0NyIvPjx0ZXh0IGZpbGw9IiMwMDAwMDAiIGZvbnQtZmFtaWx5PSJzYW5zLXNlcmlmIiBmb250LXNpemU9IjEzIiBsZW5ndGhBZGp1c3Q9InNwYWNpbmciIHRleHRMZW5ndGg9IjEyNCIgeD0iNDY4LjUiIHk9IjIxMi45Mjk3Ij5SZXR1cm4gQ2FjaGVkIERhdGE8L3RleHQ+PHBvbHlnb24gZmlsbD0iIzE4MTgxOCIgcG9pbnRzPSIxNzUsMjQwLjQ2ODgsMTY1LDI0NC40Njg4LDE3NSwyNDguNDY4OCwxNzEsMjQ0LjQ2ODgiIHN0eWxlPSJzdHJva2U6IzE4MTgxODtzdHJva2Utd2lkdGg6MS4wOyIvPjxsaW5lIHN0eWxlPSJzdHJva2U6IzE4MTgxODtzdHJva2Utd2lkdGg6MS4wOyIgeDE9IjE2OSIgeDI9IjQ1MC41IiB5MT0iMjQ0LjQ2ODgiIHkyPSIyNDQuNDY4OCIvPjx0ZXh0IGZpbGw9IiMwMDAwMDAiIGZvbnQtZmFtaWx5PSJzYW5zLXNlcmlmIiBmb250LXNpemU9IjEzIiBsZW5ndGhBZGp1c3Q9InNwYWNpbmciIHRleHRMZW5ndGg9IjEzMiIgeD0iMTgxIiB5PSIyNDAuODQzOCI+U2VuZCBEYXNoYm9hcmQgRGF0YTwvdGV4dD48bGluZSBzdHlsZT0ic3Ryb2tlOiMwMDAwMDA7c3Ryb2tlLXdpZHRoOjEuMDtzdHJva2UtZGFzaGFycmF5OjIuMCwyLjA7IiB4MT0iMTA1IiB4Mj0iNjgxIiB5MT0iMjUzLjQ2ODgiIHkyPSIyNTMuNDY4OCIvPjx0ZXh0IGZpbGw9IiMwMDAwMDAiIGZvbnQtZmFtaWx5PSJzYW5zLXNlcmlmIiBmb250LXNpemU9IjExIiBmb250LXdlaWdodD0iYm9sZCIgbGVuZ3RoQWRqdXN0PSJzcGFjaW5nIiB0ZXh0TGVuZ3RoPSI3MiIgeD0iMTEwIiB5PSIyNjMuODY3MiI+W0NhY2hlIE1pc3NdPC90ZXh0Pjxwb2x5Z29uIGZpbGw9IiMxODE4MTgiIHBvaW50cz0iMzAwLjUsMjgyLjE1NjMsMjkwLjUsMjg2LjE1NjMsMzAwLjUsMjkwLjE1NjMsMjk2LjUsMjg2LjE1NjMiIHN0eWxlPSJzdHJva2U6IzE4MTgxODtzdHJva2Utd2lkdGg6MS4wOyIvPjxsaW5lIHN0eWxlPSJzdHJva2U6IzE4MTgxODtzdHJva2Utd2lkdGg6MS4wOyIgeDE9IjI5NC41IiB4Mj0iNDUwLjUiIHkxPSIyODYuMTU2MyIgeTI9IjI4Ni4xNTYzIi8+PHRleHQgZmlsbD0iIzAwMDAwMCIgZm9udC1mYW1pbHk9InNhbnMtc2VyaWYiIGZvbnQtc2l6ZT0iMTMiIGxlbmd0aEFkanVzdD0ic3BhY2luZyIgdGV4dExlbmd0aD0iMTM4IiB4PSIzMDYuNSIgeT0iMjgyLjUzMTMiPkZldGNoIERhc2hib2FyZCBEYXRhPC90ZXh0Pjxwb2x5Z29uIGZpbGw9IiMxODE4MTgiIHBvaW50cz0iNTMwLjUsMzEwLjA3MDMsNTQwLjUsMzE0LjA3MDMsNTMwLjUsMzE4LjA3MDMsNTM0LjUsMzE0LjA3MDMiIHN0eWxlPSJzdHJva2U6IzE4MTgxODtzdHJva2Utd2lkdGg6MS4wOyIvPjxsaW5lIHN0eWxlPSJzdHJva2U6IzE4MTgxODtzdHJva2Utd2lkdGg6MS4wOyIgeDE9IjI4OS41IiB4Mj0iNTM2LjUiIHkxPSIzMTQuMDcwMyIgeTI9IjMxNC4wNzAzIi8+PHRleHQgZmlsbD0iIzAwMDAwMCIgZm9udC1mYW1pbHk9InNhbnMtc2VyaWYiIGZvbnQtc2l6ZT0iMTMiIGxlbmd0aEFkanVzdD0ic3BhY2luZyIgdGV4dExlbmd0aD0iMTM5IiB4PSIyOTYuNSIgeT0iMzEwLjQ0NTMiPlF1ZXJ5IERhc2hib2FyZCBEYXRhPC90ZXh0Pjxwb2x5Z29uIGZpbGw9IiMxODE4MTgiIHBvaW50cz0iMzAwLjUsMzM3Ljk4NDQsMjkwLjUsMzQxLjk4NDQsMzAwLjUsMzQ1Ljk4NDQsMjk2LjUsMzQxLjk4NDQiIHN0eWxlPSJzdHJva2U6IzE4MTgxODtzdHJva2Utd2lkdGg6MS4wOyIvPjxsaW5lIHN0eWxlPSJzdHJva2U6IzE4MTgxODtzdHJva2Utd2lkdGg6MS4wOyIgeDE9IjI5NC41IiB4Mj0iNTQxLjUiIHkxPSIzNDEuOTg0NCIgeTI9IjM0MS45ODQ0Ii8+PHRleHQgZmlsbD0iIzAwMDAwMCIgZm9udC1mYW1pbHk9InNhbnMtc2VyaWYiIGZvbnQtc2l6ZT0iMTMiIGxlbmd0aEFkanVzdD0ic3BhY2luZyIgdGV4dExlbmd0aD0iNzUiIHg9IjMwNi41IiB5PSIzMzguMzU5NCI+UmV0dXJuIERhdGE8L3RleHQ+PHBvbHlnb24gZmlsbD0iIzE4MTgxOCIgcG9pbnRzPSI2MzQuNSwzNjUuODk4NCw2NDQuNSwzNjkuODk4NCw2MzQuNSwzNzMuODk4NCw2MzguNSwzNjkuODk4NCIgc3R5bGU9InN0cm9rZTojMTgxODE4O3N0cm9rZS13aWR0aDoxLjA7Ii8+PGxpbmUgc3R5bGU9InN0cm9rZTojMTgxODE4O3N0cm9rZS13aWR0aDoxLjA7IiB4MT0iMjg5LjUiIHgyPSI2NDAuNSIgeTE9IjM2OS44OTg0IiB5Mj0iMzY5Ljg5ODQiLz48dGV4dCBmaWxsPSIjMDAwMDAwIiBmb250LWZhbWlseT0ic2Fucy1zZXJpZiIgZm9udC1zaXplPSIxMyIgbGVuZ3RoQWRqdXN0PSJzcGFjaW5nIiB0ZXh0TGVuZ3RoPSI5NiIgeD0iMjk2LjUiIHk9IjM2Ni4yNzM0Ij5TdG9yZSBpbiBDYWNoZTwvdGV4dD48cG9seWdvbiBmaWxsPSIjMTgxODE4IiBwb2ludHM9IjQzOS41LDM5My44MTI1LDQ0OS41LDM5Ny44MTI1LDQzOS41LDQwMS44MTI1LDQ0My41LDM5Ny44MTI1IiBzdHlsZT0ic3Ryb2tlOiMxODE4MTg7c3Ryb2tlLXdpZHRoOjEuMDsiLz48bGluZSBzdHlsZT0ic3Ryb2tlOiMxODE4MTg7c3Ryb2tlLXdpZHRoOjEuMDsiIHgxPSIyODkuNSIgeDI9IjQ0NS41IiB5MT0iMzk3LjgxMjUiIHkyPSIzOTcuODEyNSIvPjx0ZXh0IGZpbGw9IiMwMDAwMDAiIGZvbnQtZmFtaWx5PSJzYW5zLXNlcmlmIiBmb250LXNpemU9IjEzIiBsZW5ndGhBZGp1c3Q9InNwYWNpbmciIHRleHRMZW5ndGg9IjYyIiB4PSIyOTYuNSIgeT0iMzk0LjE4NzUiPlNlbmQgRGF0YTwvdGV4dD48cG9seWdvbiBmaWxsPSIjMTgxODE4IiBwb2ludHM9IjE3NSw0MjEuNzI2NiwxNjUsNDI1LjcyNjYsMTc1LDQyOS43MjY2LDE3MSw0MjUuNzI2NiIgc3R5bGU9InN0cm9rZTojMTgxODE4O3N0cm9rZS13aWR0aDoxLjA7Ii8+PGxpbmUgc3R5bGU9InN0cm9rZTojMTgxODE4O3N0cm9rZS13aWR0aDoxLjA7IiB4MT0iMTY5IiB4Mj0iNDUwLjUiIHkxPSI0MjUuNzI2NiIgeTI9IjQyNS43MjY2Ii8+PHRleHQgZmlsbD0iIzAwMDAwMCIgZm9udC1mYW1pbHk9InNhbnMtc2VyaWYiIGZvbnQtc2l6ZT0iMTMiIGxlbmd0aEFkanVzdD0ic3BhY2luZyIgdGV4dExlbmd0aD0iMTMyIiB4PSIxODEiIHk9IjQyMi4xMDE2Ij5TZW5kIERhc2hib2FyZCBEYXRhPC90ZXh0Pjxwb2x5Z29uIGZpbGw9IiMxODE4MTgiIHBvaW50cz0iMTUyLDQ1Ni42NDA2LDE2Miw0NjAuNjQwNiwxNTIsNDY0LjY0MDYsMTU2LDQ2MC42NDA2IiBzdHlsZT0ic3Ryb2tlOiMxODE4MTg7c3Ryb2tlLXdpZHRoOjEuMDsiLz48bGluZSBzdHlsZT0ic3Ryb2tlOiMxODE4MTg7c3Ryb2tlLXdpZHRoOjEuMDsiIHgxPSIyMiIgeDI9IjE1OCIgeTE9IjQ2MC42NDA2IiB5Mj0iNDYwLjY0MDYiLz48dGV4dCBmaWxsPSIjMDAwMDAwIiBmb250LWZhbWlseT0ic2Fucy1zZXJpZiIgZm9udC1zaXplPSIxMyIgbGVuZ3RoQWRqdXN0PSJzcGFjaW5nIiB0ZXh0TGVuZ3RoPSIxMTAiIHg9IjI5IiB5PSI0NTcuMDE1NiI+TW9kaWZ5IERhc2hib2FyZDwvdGV4dD48cG9seWdvbiBmaWxsPSIjMTgxODE4IiBwb2ludHM9IjQzOS41LDQ4NC41NTQ3LDQ0OS41LDQ4OC41NTQ3LDQzOS41LDQ5Mi41NTQ3LDQ0My41LDQ4OC41NTQ3IiBzdHlsZT0ic3Ryb2tlOiMxODE4MTg7c3Ryb2tlLXdpZHRoOjEuMDsiLz48bGluZSBzdHlsZT0ic3Ryb2tlOiMxODE4MTg7c3Ryb2tlLXdpZHRoOjEuMDsiIHgxPSIxNjQiIHgyPSI0NDUuNSIgeTE9IjQ4OC41NTQ3IiB5Mj0iNDg4LjU1NDciLz48dGV4dCBmaWxsPSIjMDAwMDAwIiBmb250LWZhbWlseT0ic2Fucy1zZXJpZiIgZm9udC1zaXplPSIxMyIgbGVuZ3RoQWRqdXN0PSJzcGFjaW5nIiB0ZXh0TGVuZ3RoPSIyMjQiIHg9IjE3MSIgeT0iNDg0LjkyOTciPkFQSSBDYWxsIChQT1NUIC9kYXNoYm9hcmQvdXBkYXRlKTwvdGV4dD48cG9seWdvbiBmaWxsPSIjMTgxODE4IiBwb2ludHM9IjMwMC41LDUxMi40Njg4LDI5MC41LDUxNi40Njg4LDMwMC41LDUyMC40Njg4LDI5Ni41LDUxNi40Njg4IiBzdHlsZT0ic3Ryb2tlOiMxODE4MTg7c3Ryb2tlLXdpZHRoOjEuMDsiLz48bGluZSBzdHlsZT0ic3Ryb2tlOiMxODE4MTg7c3Ryb2tlLXdpZHRoOjEuMDsiIHgxPSIyOTQuNSIgeDI9IjQ1MC41IiB5MT0iNTE2LjQ2ODgiIHkyPSI1MTYuNDY4OCIvPjx0ZXh0IGZpbGw9IiMwMDAwMDAiIGZvbnQtZmFtaWx5PSJzYW5zLXNlcmlmIiBmb250LXNpemU9IjEzIiBsZW5ndGhBZGp1c3Q9InNwYWNpbmciIHRleHRMZW5ndGg9IjExMSIgeD0iMzA2LjUiIHk9IjUxMi44NDM4Ij5VcGRhdGUgRGFzaGJvYXJkPC90ZXh0Pjxwb2x5Z29uIGZpbGw9IiMxODE4MTgiIHBvaW50cz0iNTMwLjUsNTQwLjM4MjgsNTQwLjUsNTQ0LjM4MjgsNTMwLjUsNTQ4LjM4MjgsNTM0LjUsNTQ0LjM4MjgiIHN0eWxlPSJzdHJva2U6IzE4MTgxODtzdHJva2Utd2lkdGg6MS4wOyIvPjxsaW5lIHN0eWxlPSJzdHJva2U6IzE4MTgxODtzdHJva2Utd2lkdGg6MS4wOyIgeDE9IjI4OS41IiB4Mj0iNTM2LjUiIHkxPSI1NDQuMzgyOCIgeTI9IjU0NC4zODI4Ii8+PHRleHQgZmlsbD0iIzAwMDAwMCIgZm9udC1mYW1pbHk9InNhbnMtc2VyaWYiIGZvbnQtc2l6ZT0iMTMiIGxlbmd0aEFkanVzdD0ic3BhY2luZyIgdGV4dExlbmd0aD0iODQiIHg9IjI5Ni41IiB5PSI1NDAuNzU3OCI+U2F2ZSBDaGFuZ2VzPC90ZXh0Pjxwb2x5Z29uIGZpbGw9IiMxODE4MTgiIHBvaW50cz0iNjM0LjUsNTY4LjI5NjksNjQ0LjUsNTcyLjI5NjksNjM0LjUsNTc2LjI5NjksNjM4LjUsNTcyLjI5NjkiIHN0eWxlPSJzdHJva2U6IzE4MTgxODtzdHJva2Utd2lkdGg6MS4wOyIvPjxsaW5lIHN0eWxlPSJzdHJva2U6IzE4MTgxODtzdHJva2Utd2lkdGg6MS4wOyIgeDE9IjI4OS41IiB4Mj0iNjQwLjUiIHkxPSI1NzIuMjk2OSIgeTI9IjU3Mi4yOTY5Ii8+PHRleHQgZmlsbD0iIzAwMDAwMCIgZm9udC1mYW1pbHk9InNhbnMtc2VyaWYiIGZvbnQtc2l6ZT0iMTMiIGxlbmd0aEFkanVzdD0ic3BhY2luZyIgdGV4dExlbmd0aD0iODMiIHg9IjI5Ni41IiB5PSI1NjguNjcxOSI+VXBkYXRlIENhY2hlPC90ZXh0Pjxwb2x5Z29uIGZpbGw9IiMxODE4MTgiIHBvaW50cz0iMTc1LDU5Ni4yMTA5LDE2NSw2MDAuMjEwOSwxNzUsNjA0LjIxMDksMTcxLDYwMC4yMTA5IiBzdHlsZT0ic3Ryb2tlOiMxODE4MTg7c3Ryb2tlLXdpZHRoOjEuMDsiLz48bGluZSBzdHlsZT0ic3Ryb2tlOiMxODE4MTg7c3Ryb2tlLXdpZHRoOjEuMDsiIHgxPSIxNjkiIHgyPSI0NTAuNSIgeTE9IjYwMC4yMTA5IiB5Mj0iNjAwLjIxMDkiLz48dGV4dCBmaWxsPSIjMDAwMDAwIiBmb250LWZhbWlseT0ic2Fucy1zZXJpZiIgZm9udC1zaXplPSIxMyIgbGVuZ3RoQWRqdXN0PSJzcGFjaW5nIiB0ZXh0TGVuZ3RoPSI5NCIgeD0iMTgxIiB5PSI1OTYuNTg1OSI+Q29uZmlybSBVcGRhdGU8L3RleHQ+PCEtLVNSQz1bWkxCQktlQ201RHRkQS12cWZHa2RVblJFSUQ3QWVjRGp2MERrb1FyYUhDMGFMMWQ3VnBTOVdLOTdIcmEwb05kYTcyd09jcmYxZmFjbjFmTUhrTW9tQ2gxOEsxVng2Zk0wQjVxMFFsbHVaUzE5N01MRWRmTm1FVWpjY3k4UTNSclp2dDZ4RmhTbms0U1RyRjRTTjY1VXo4WF9PeXBiWEFqaDZvUTI3UnNyZjBzQ0dMWU1FaW1VNFJjUnJQR2JOQW5sZHMwZjFpeG9LdWdsSS1QV0lfTWs0UW1Bb2J6MDdjMmEwTnI4UkpKM3FsR2FrOVU2V1J0d3JOM0NaYW9oZ2R2SldFbFlJUzdVZlVIS1lMRjRkYUFiZmMycWFMZkY5R2NGdTh2Q05mbmg3MlZYZFg5N3lEWUl3ZHdhbjhEQlk3T2MzZXN2N0pnMTNDYWRrNnlMQ2wtcEoyTmNTemRLR1h3d2x5UW9WVTJwa1JJRGlCXzlFMWROOEZEUjR3REpWdXY3LW1LQmg5djlpcmNwOEVmeEpRQWx3a2VXck1sMGxtNDBdLS0+PC9nPjwvc3ZnPg==;" vertex="1" parent="1">
            <mxGeometry x="256" y="1090" width="730.44" height="740" as="geometry" />
          </mxCell>
        </UserObject>
        <mxCell id="P3c6qDh03aw6tttAvGT_-9" value="Text" style="text;html=1;align=center;verticalAlign=middle;whiteSpace=wrap;rounded=0;" vertex="1" parent="1">
          <mxGeometry x="820" y="1440" width="60" height="30" as="geometry" />
        </mxCell>
        <mxCell id="P3c6qDh03aw6tttAvGT_-10" value="Text" style="text;html=1;align=center;verticalAlign=middle;whiteSpace=wrap;rounded=0;" vertex="1" parent="1">
          <mxGeometry x="820" y="1440" width="60" height="30" as="geometry" />
        </mxCell>
        <mxCell id="P3c6qDh03aw6tttAvGT_-11" value="Sequence Diagram" style="text;html=1;align=center;verticalAlign=middle;whiteSpace=wrap;rounded=0;" vertex="1" parent="1">
          <mxGeometry x="591" y="1070" width="179" height="30" as="geometry" />
        </mxCell>
        <UserObject label="" plantUmlData="{&#xa;  &quot;data&quot;: &quot;@startuml\n\nnode \&quot;User Device\&quot; {\n    [Web Browser]\n}\n\nnode \&quot;Cloud Infrastructure\&quot; {\n    node \&quot;ThingsBoard Server\&quot; {\n        [Dashboard Service]\n        [API Gateway]\n    }\n    node \&quot;Database Cluster\&quot; {\n        [PostgreSQL]\n        [Cassandra]\n    }\n    node \&quot;Cache Server\&quot; {\n        [Redis]\n    }\n    node \&quot;Security Service\&quot; {\n        [RBAC]\n        [Authentication &amp; Authorization]\n    }\n}\n\n[Web Browser] --&gt; [API Gateway]: HTTPS Request\n[API Gateway] --&gt; [Dashboard Service]: Process Request\n[Dashboard Service] --&gt; [Database Cluster]: Fetch/Store Data\n[Dashboard Service] --&gt; [Cache Server]: Cache Dashboard Data\n[API Gateway] --&gt; [Security Service]: Authenticate User\n\n@enduml&quot;,&#xa;  &quot;format&quot;: &quot;svg&quot;&#xa;}" id="P3c6qDh03aw6tttAvGT_-12">
          <mxCell style="shape=image;noLabel=1;verticalAlign=top;aspect=fixed;imageAspect=0;image=data:image/svg+xml,PD94bWwgdmVyc2lvbj0iMS4wIiBlbmNvZGluZz0idXMtYXNjaWkiIHN0YW5kYWxvbmU9Im5vIj8+PHN2ZyB4bWxucz0iaHR0cDovL3d3dy53My5vcmcvMjAwMC9zdmciIHhtbG5zOnhsaW5rPSJodHRwOi8vd3d3LnczLm9yZy8xOTk5L3hsaW5rIiBjb250ZW50U3R5bGVUeXBlPSJ0ZXh0L2NzcyIgaGVpZ2h0PSI2OTJweCIgcHJlc2VydmVBc3BlY3RSYXRpbz0ibm9uZSIgc3R5bGU9IndpZHRoOjc0M3B4O2hlaWdodDo2OTJweDtiYWNrZ3JvdW5kOiNGRkZGRkY7IiB2ZXJzaW9uPSIxLjEiIHZpZXdCb3g9IjAgMCA3NDMgNjkyIiB3aWR0aD0iNzQzcHgiIHpvb21BbmRQYW49Im1hZ25pZnkiPjxkZWZzLz48Zz48IS0tY2x1c3RlciBVc2VyIERldmljZS0tPjxnIGlkPSJjbHVzdGVyX1VzZXIgRGV2aWNlIj48cG9seWdvbiBmaWxsPSJub25lIiBwb2ludHM9IjcxLDE2LDgxLDYsMjI0LDYsMjI0LDk1LDIxNCwxMDUsNzEsMTA1LDcxLDE2IiBzdHlsZT0ic3Ryb2tlOiMxODE4MTg7c3Ryb2tlLXdpZHRoOjEuMDsiLz48bGluZSBzdHlsZT0ic3Ryb2tlOiMxODE4MTg7c3Ryb2tlLXdpZHRoOjEuMDsiIHgxPSIyMTQiIHgyPSIyMjQiIHkxPSIxNiIgeTI9IjYiLz48bGluZSBzdHlsZT0ic3Ryb2tlOiMxODE4MTg7c3Ryb2tlLXdpZHRoOjEuMDsiIHgxPSI3MSIgeDI9IjIxNCIgeTE9IjE2IiB5Mj0iMTYiLz48bGluZSBzdHlsZT0ic3Ryb2tlOiMxODE4MTg7c3Ryb2tlLXdpZHRoOjEuMDsiIHgxPSIyMTQiIHgyPSIyMTQiIHkxPSIxNiIgeTI9IjEwNSIvPjx0ZXh0IGZpbGw9IiMwMDAwMDAiIGZvbnQtZmFtaWx5PSJzYW5zLXNlcmlmIiBmb250LXNpemU9IjE0IiBmb250LXdlaWdodD0iYm9sZCIgbGVuZ3RoQWRqdXN0PSJzcGFjaW5nIiB0ZXh0TGVuZ3RoPSI3NyIgeD0iMTA1IiB5PSIzMi4yMzQ0Ij5Vc2VyIERldmljZTwvdGV4dD48L2c+PCEtLWNsdXN0ZXIgQ2xvdWQgSW5mcmFzdHJ1Y3R1cmUtLT48ZyBpZD0iY2x1c3Rlcl9DbG91ZCBJbmZyYXN0cnVjdHVyZSI+PHBvbHlnb24gZmlsbD0ibm9uZSIgcG9pbnRzPSIxNiwxNjIsMjYsMTUyLDcyNiwxNTIsNzI2LDY2NSw3MTYsNjc1LDE2LDY3NSwxNiwxNjIiIHN0eWxlPSJzdHJva2U6IzE4MTgxODtzdHJva2Utd2lkdGg6MS4wOyIvPjxsaW5lIHN0eWxlPSJzdHJva2U6IzE4MTgxODtzdHJva2Utd2lkdGg6MS4wOyIgeDE9IjcxNiIgeDI9IjcyNiIgeTE9IjE2MiIgeTI9IjE1MiIvPjxsaW5lIHN0eWxlPSJzdHJva2U6IzE4MTgxODtzdHJva2Utd2lkdGg6MS4wOyIgeDE9IjE2IiB4Mj0iNzE2IiB5MT0iMTYyIiB5Mj0iMTYyIi8+PGxpbmUgc3R5bGU9InN0cm9rZTojMTgxODE4O3N0cm9rZS13aWR0aDoxLjA7IiB4MT0iNzE2IiB4Mj0iNzE2IiB5MT0iMTYyIiB5Mj0iNjc1Ii8+PHRleHQgZmlsbD0iIzAwMDAwMCIgZm9udC1mYW1pbHk9InNhbnMtc2VyaWYiIGZvbnQtc2l6ZT0iMTQiIGZvbnQtd2VpZ2h0PSJib2xkIiBsZW5ndGhBZGp1c3Q9InNwYWNpbmciIHRleHRMZW5ndGg9IjE0MCIgeD0iMjk3IiB5PSIxNzguMjM0NCI+Q2xvdWQgSW5mcmFzdHJ1Y3R1cmU8L3RleHQ+PC9nPjwhLS1jbHVzdGVyIFRoaW5nc0JvYXJkIFNlcnZlci0tPjxnIGlkPSJjbHVzdGVyX1RoaW5nc0JvYXJkIFNlcnZlciI+PHBvbHlnb24gZmlsbD0ibm9uZSIgcG9pbnRzPSI0MCwyMDgsNTAsMTk4LDI0MiwxOTgsMjQyLDQ0NywyMzIsNDU3LDQwLDQ1Nyw0MCwyMDgiIHN0eWxlPSJzdHJva2U6IzE4MTgxODtzdHJva2Utd2lkdGg6MS4wOyIvPjxsaW5lIHN0eWxlPSJzdHJva2U6IzE4MTgxODtzdHJva2Utd2lkdGg6MS4wOyIgeDE9IjIzMiIgeDI9IjI0MiIgeTE9IjIwOCIgeTI9IjE5OCIvPjxsaW5lIHN0eWxlPSJzdHJva2U6IzE4MTgxODtzdHJva2Utd2lkdGg6MS4wOyIgeDE9IjQwIiB4Mj0iMjMyIiB5MT0iMjA4IiB5Mj0iMjA4Ii8+PGxpbmUgc3R5bGU9InN0cm9rZTojMTgxODE4O3N0cm9rZS13aWR0aDoxLjA7IiB4MT0iMjMyIiB4Mj0iMjMyIiB5MT0iMjA4IiB5Mj0iNDU3Ii8+PHRleHQgZmlsbD0iIzAwMDAwMCIgZm9udC1mYW1pbHk9InNhbnMtc2VyaWYiIGZvbnQtc2l6ZT0iMTQiIGZvbnQtd2VpZ2h0PSJib2xkIiBsZW5ndGhBZGp1c3Q9InNwYWNpbmciIHRleHRMZW5ndGg9IjEyNiIgeD0iNzQiIHk9IjIyNC4yMzQ0Ij5UaGluZ3NCb2FyZCBTZXJ2ZXI8L3RleHQ+PC9nPjwhLS1jbHVzdGVyIERhdGFiYXNlIENsdXN0ZXItLT48ZyBpZD0iY2x1c3Rlcl9EYXRhYmFzZSBDbHVzdGVyIj48cG9seWdvbiBmaWxsPSJub25lIiBwb2ludHM9IjczLDUzOCw4Myw1MjgsMzg5LDUyOCwzODksNjMzLDM3OSw2NDMsNzMsNjQzLDczLDUzOCIgc3R5bGU9InN0cm9rZTojMTgxODE4O3N0cm9rZS13aWR0aDoxLjA7Ii8+PGxpbmUgc3R5bGU9InN0cm9rZTojMTgxODE4O3N0cm9rZS13aWR0aDoxLjA7IiB4MT0iMzc5IiB4Mj0iMzg5IiB5MT0iNTM4IiB5Mj0iNTI4Ii8+PGxpbmUgc3R5bGU9InN0cm9rZTojMTgxODE4O3N0cm9rZS13aWR0aDoxLjA7IiB4MT0iNzMiIHgyPSIzNzkiIHkxPSI1MzgiIHkyPSI1MzgiLz48bGluZSBzdHlsZT0ic3Ryb2tlOiMxODE4MTg7c3Ryb2tlLXdpZHRoOjEuMDsiIHgxPSIzNzkiIHgyPSIzNzkiIHkxPSI1MzgiIHkyPSI2NDMiLz48dGV4dCBmaWxsPSIjMDAwMDAwIiBmb250LWZhbWlseT0ic2Fucy1zZXJpZiIgZm9udC1zaXplPSIxNCIgZm9udC13ZWlnaHQ9ImJvbGQiIGxlbmd0aEFkanVzdD0ic3BhY2luZyIgdGV4dExlbmd0aD0iMTEyIiB4PSIxNzEiIHk9IjU1NC4yMzQ0Ij5EYXRhYmFzZSBDbHVzdGVyPC90ZXh0PjwvZz48IS0tY2x1c3RlciBDYWNoZSBTZXJ2ZXItLT48ZyBpZD0iY2x1c3Rlcl9DYWNoZSBTZXJ2ZXIiPjxwb2x5Z29uIGZpbGw9Im5vbmUiIHBvaW50cz0iNDI5LDUzOCw0MzksNTI4LDU4OSw1MjgsNTg5LDYzMyw1NzksNjQzLDQyOSw2NDMsNDI5LDUzOCIgc3R5bGU9InN0cm9rZTojMTgxODE4O3N0cm9rZS13aWR0aDoxLjA7Ii8+PGxpbmUgc3R5bGU9InN0cm9rZTojMTgxODE4O3N0cm9rZS13aWR0aDoxLjA7IiB4MT0iNTc5IiB4Mj0iNTg5IiB5MT0iNTM4IiB5Mj0iNTI4Ii8+PGxpbmUgc3R5bGU9InN0cm9rZTojMTgxODE4O3N0cm9rZS13aWR0aDoxLjA7IiB4MT0iNDI5IiB4Mj0iNTc5IiB5MT0iNTM4IiB5Mj0iNTM4Ii8+PGxpbmUgc3R5bGU9InN0cm9rZTojMTgxODE4O3N0cm9rZS13aWR0aDoxLjA7IiB4MT0iNTc5IiB4Mj0iNTc5IiB5MT0iNTM4IiB5Mj0iNjQzIi8+PHRleHQgZmlsbD0iIzAwMDAwMCIgZm9udC1mYW1pbHk9InNhbnMtc2VyaWYiIGZvbnQtc2l6ZT0iMTQiIGZvbnQtd2VpZ2h0PSJib2xkIiBsZW5ndGhBZGp1c3Q9InNwYWNpbmciIHRleHRMZW5ndGg9Ijg0IiB4PSI0NjMiIHk9IjU1NC4yMzQ0Ij5DYWNoZSBTZXJ2ZXI8L3RleHQ+PC9nPjwhLS1jbHVzdGVyIFNlY3VyaXR5IFNlcnZpY2UtLT48ZyBpZD0iY2x1c3Rlcl9TZWN1cml0eSBTZXJ2aWNlIj48cG9seWdvbiBmaWxsPSJub25lIiBwb2ludHM9IjI3NCwzNjAsMjg0LDM1MCw2OTQsMzUwLDY5NCw0NTUsNjg0LDQ2NSwyNzQsNDY1LDI3NCwzNjAiIHN0eWxlPSJzdHJva2U6IzE4MTgxODtzdHJva2Utd2lkdGg6MS4wOyIvPjxsaW5lIHN0eWxlPSJzdHJva2U6IzE4MTgxODtzdHJva2Utd2lkdGg6MS4wOyIgeDE9IjY4NCIgeDI9IjY5NCIgeTE9IjM2MCIgeTI9IjM1MCIvPjxsaW5lIHN0eWxlPSJzdHJva2U6IzE4MTgxODtzdHJva2Utd2lkdGg6MS4wOyIgeDE9IjI3NCIgeDI9IjY4NCIgeTE9IjM2MCIgeTI9IjM2MCIvPjxsaW5lIHN0eWxlPSJzdHJva2U6IzE4MTgxODtzdHJva2Utd2lkdGg6MS4wOyIgeDE9IjY4NCIgeDI9IjY4NCIgeTE9IjM2MCIgeTI9IjQ2NSIvPjx0ZXh0IGZpbGw9IiMwMDAwMDAiIGZvbnQtZmFtaWx5PSJzYW5zLXNlcmlmIiBmb250LXNpemU9IjE0IiBmb250LXdlaWdodD0iYm9sZCIgbGVuZ3RoQWRqdXN0PSJzcGFjaW5nIiB0ZXh0TGVuZ3RoPSIxMTIiIHg9IjQyNCIgeT0iMzc2LjIzNDQiPlNlY3VyaXR5IFNlcnZpY2U8L3RleHQ+PC9nPjwhLS1lbnRpdHkgV2ViIEJyb3dzZXItLT48ZyBpZD0iZWxlbV9XZWIgQnJvd3NlciI+PHJlY3QgZmlsbD0iI0YxRjFGMSIgaGVpZ2h0PSI0NC45ODQ0IiByeD0iMi41IiByeT0iMi41IiBzdHlsZT0ic3Ryb2tlOiMxODE4MTg7c3Ryb2tlLXdpZHRoOjAuNTsiIHdpZHRoPSIxMTgiIHg9Ijg4IiB5PSI0NCIvPjxyZWN0IGZpbGw9IiNGMUYxRjEiIGhlaWdodD0iMTAiIHN0eWxlPSJzdHJva2U6IzE4MTgxODtzdHJva2Utd2lkdGg6MC41OyIgd2lkdGg9IjE1IiB4PSIxODYiIHk9IjQ5Ii8+PHJlY3QgZmlsbD0iI0YxRjFGMSIgaGVpZ2h0PSIyIiBzdHlsZT0ic3Ryb2tlOiMxODE4MTg7c3Ryb2tlLXdpZHRoOjAuNTsiIHdpZHRoPSI0IiB4PSIxODQiIHk9IjUxIi8+PHJlY3QgZmlsbD0iI0YxRjFGMSIgaGVpZ2h0PSIyIiBzdHlsZT0ic3Ryb2tlOiMxODE4MTg7c3Ryb2tlLXdpZHRoOjAuNTsiIHdpZHRoPSI0IiB4PSIxODQiIHk9IjU1Ii8+PHRleHQgZmlsbD0iIzAwMDAwMCIgZm9udC1mYW1pbHk9InNhbnMtc2VyaWYiIGZvbnQtc2l6ZT0iMTQiIGxlbmd0aEFkanVzdD0ic3BhY2luZyIgdGV4dExlbmd0aD0iNzgiIHg9IjEwMyIgeT0iNzcuMjM0NCI+V2ViIEJyb3dzZXI8L3RleHQ+PC9nPjwhLS1lbnRpdHkgRGFzaGJvYXJkIFNlcnZpY2UtLT48ZyBpZD0iZWxlbV9EYXNoYm9hcmQgU2VydmljZSI+PHJlY3QgZmlsbD0iI0YxRjFGMSIgaGVpZ2h0PSI0NC45ODQ0IiByeD0iMi41IiByeT0iMi41IiBzdHlsZT0ic3Ryb2tlOiMxODE4MTg7c3Ryb2tlLXdpZHRoOjAuNTsiIHdpZHRoPSIxNTkiIHg9IjY3LjUiIHk9IjM5NiIvPjxyZWN0IGZpbGw9IiNGMUYxRjEiIGhlaWdodD0iMTAiIHN0eWxlPSJzdHJva2U6IzE4MTgxODtzdHJva2Utd2lkdGg6MC41OyIgd2lkdGg9IjE1IiB4PSIyMDYuNSIgeT0iNDAxIi8+PHJlY3QgZmlsbD0iI0YxRjFGMSIgaGVpZ2h0PSIyIiBzdHlsZT0ic3Ryb2tlOiMxODE4MTg7c3Ryb2tlLXdpZHRoOjAuNTsiIHdpZHRoPSI0IiB4PSIyMDQuNSIgeT0iNDAzIi8+PHJlY3QgZmlsbD0iI0YxRjFGMSIgaGVpZ2h0PSIyIiBzdHlsZT0ic3Ryb2tlOiMxODE4MTg7c3Ryb2tlLXdpZHRoOjAuNTsiIHdpZHRoPSI0IiB4PSIyMDQuNSIgeT0iNDA3Ii8+PHRleHQgZmlsbD0iIzAwMDAwMCIgZm9udC1mYW1pbHk9InNhbnMtc2VyaWYiIGZvbnQtc2l6ZT0iMTQiIGxlbmd0aEFkanVzdD0ic3BhY2luZyIgdGV4dExlbmd0aD0iMTE5IiB4PSI4Mi41IiB5PSI0MjkuMjM0NCI+RGFzaGJvYXJkIFNlcnZpY2U8L3RleHQ+PC9nPjwhLS1lbnRpdHkgQVBJIEdhdGV3YXktLT48ZyBpZD0iZWxlbV9BUEkgR2F0ZXdheSI+PHJlY3QgZmlsbD0iI0YxRjFGMSIgaGVpZ2h0PSI0NC45ODQ0IiByeD0iMi41IiByeT0iMi41IiBzdHlsZT0ic3Ryb2tlOiMxODE4MTg7c3Ryb2tlLXdpZHRoOjAuNTsiIHdpZHRoPSIxMTgiIHg9Ijg4IiB5PSIyMzYiLz48cmVjdCBmaWxsPSIjRjFGMUYxIiBoZWlnaHQ9IjEwIiBzdHlsZT0ic3Ryb2tlOiMxODE4MTg7c3Ryb2tlLXdpZHRoOjAuNTsiIHdpZHRoPSIxNSIgeD0iMTg2IiB5PSIyNDEiLz48cmVjdCBmaWxsPSIjRjFGMUYxIiBoZWlnaHQ9IjIiIHN0eWxlPSJzdHJva2U6IzE4MTgxODtzdHJva2Utd2lkdGg6MC41OyIgd2lkdGg9IjQiIHg9IjE4NCIgeT0iMjQzIi8+PHJlY3QgZmlsbD0iI0YxRjFGMSIgaGVpZ2h0PSIyIiBzdHlsZT0ic3Ryb2tlOiMxODE4MTg7c3Ryb2tlLXdpZHRoOjAuNTsiIHdpZHRoPSI0IiB4PSIxODQiIHk9IjI0NyIvPjx0ZXh0IGZpbGw9IiMwMDAwMDAiIGZvbnQtZmFtaWx5PSJzYW5zLXNlcmlmIiBmb250LXNpemU9IjE0IiBsZW5ndGhBZGp1c3Q9InNwYWNpbmciIHRleHRMZW5ndGg9Ijc4IiB4PSIxMDMiIHk9IjI2OS4yMzQ0Ij5BUEkgR2F0ZXdheTwvdGV4dD48L2c+PCEtLWVudGl0eSBQb3N0Z3JlU1FMLS0+PGcgaWQ9ImVsZW1fUG9zdGdyZVNRTCI+PHJlY3QgZmlsbD0iI0YxRjFGMSIgaGVpZ2h0PSI0NC45ODQ0IiByeD0iMi41IiByeT0iMi41IiBzdHlsZT0ic3Ryb2tlOiMxODE4MTg7c3Ryb2tlLXdpZHRoOjAuNTsiIHdpZHRoPSIxMTAiIHg9IjI1NSIgeT0iNTc0Ii8+PHJlY3QgZmlsbD0iI0YxRjFGMSIgaGVpZ2h0PSIxMCIgc3R5bGU9InN0cm9rZTojMTgxODE4O3N0cm9rZS13aWR0aDowLjU7IiB3aWR0aD0iMTUiIHg9IjM0NSIgeT0iNTc5Ii8+PHJlY3QgZmlsbD0iI0YxRjFGMSIgaGVpZ2h0PSIyIiBzdHlsZT0ic3Ryb2tlOiMxODE4MTg7c3Ryb2tlLXdpZHRoOjAuNTsiIHdpZHRoPSI0IiB4PSIzNDMiIHk9IjU4MSIvPjxyZWN0IGZpbGw9IiNGMUYxRjEiIGhlaWdodD0iMiIgc3R5bGU9InN0cm9rZTojMTgxODE4O3N0cm9rZS13aWR0aDowLjU7IiB3aWR0aD0iNCIgeD0iMzQzIiB5PSI1ODUiLz48dGV4dCBmaWxsPSIjMDAwMDAwIiBmb250LWZhbWlseT0ic2Fucy1zZXJpZiIgZm9udC1zaXplPSIxNCIgbGVuZ3RoQWRqdXN0PSJzcGFjaW5nIiB0ZXh0TGVuZ3RoPSI3MCIgeD0iMjcwIiB5PSI2MDcuMjM0NCI+UG9zdGdyZVNRTDwvdGV4dD48L2c+PCEtLWVudGl0eSBDYXNzYW5kcmEtLT48ZyBpZD0iZWxlbV9DYXNzYW5kcmEiPjxyZWN0IGZpbGw9IiNGMUYxRjEiIGhlaWdodD0iNDQuOTg0NCIgcng9IjIuNSIgcnk9IjIuNSIgc3R5bGU9InN0cm9rZTojMTgxODE4O3N0cm9rZS13aWR0aDowLjU7IiB3aWR0aD0iMTAzIiB4PSIxMTYuNSIgeT0iNTc0Ii8+PHJlY3QgZmlsbD0iI0YxRjFGMSIgaGVpZ2h0PSIxMCIgc3R5bGU9InN0cm9rZTojMTgxODE4O3N0cm9rZS13aWR0aDowLjU7IiB3aWR0aD0iMTUiIHg9IjE5OS41IiB5PSI1NzkiLz48cmVjdCBmaWxsPSIjRjFGMUYxIiBoZWlnaHQ9IjIiIHN0eWxlPSJzdHJva2U6IzE4MTgxODtzdHJva2Utd2lkdGg6MC41OyIgd2lkdGg9IjQiIHg9IjE5Ny41IiB5PSI1ODEiLz48cmVjdCBmaWxsPSIjRjFGMUYxIiBoZWlnaHQ9IjIiIHN0eWxlPSJzdHJva2U6IzE4MTgxODtzdHJva2Utd2lkdGg6MC41OyIgd2lkdGg9IjQiIHg9IjE5Ny41IiB5PSI1ODUiLz48dGV4dCBmaWxsPSIjMDAwMDAwIiBmb250LWZhbWlseT0ic2Fucy1zZXJpZiIgZm9udC1zaXplPSIxNCIgbGVuZ3RoQWRqdXN0PSJzcGFjaW5nIiB0ZXh0TGVuZ3RoPSI2MyIgeD0iMTMxLjUiIHk9IjYwNy4yMzQ0Ij5DYXNzYW5kcmE8L3RleHQ+PC9nPjwhLS1lbnRpdHkgUmVkaXMtLT48ZyBpZD0iZWxlbV9SZWRpcyI+PHJlY3QgZmlsbD0iI0YxRjFGMSIgaGVpZ2h0PSI0NC45ODQ0IiByeD0iMi41IiByeT0iMi41IiBzdHlsZT0ic3Ryb2tlOiMxODE4MTg7c3Ryb2tlLXdpZHRoOjAuNTsiIHdpZHRoPSI3NSIgeD0iNDgxLjUiIHk9IjU3NCIvPjxyZWN0IGZpbGw9IiNGMUYxRjEiIGhlaWdodD0iMTAiIHN0eWxlPSJzdHJva2U6IzE4MTgxODtzdHJva2Utd2lkdGg6MC41OyIgd2lkdGg9IjE1IiB4PSI1MzYuNSIgeT0iNTc5Ii8+PHJlY3QgZmlsbD0iI0YxRjFGMSIgaGVpZ2h0PSIyIiBzdHlsZT0ic3Ryb2tlOiMxODE4MTg7c3Ryb2tlLXdpZHRoOjAuNTsiIHdpZHRoPSI0IiB4PSI1MzQuNSIgeT0iNTgxIi8+PHJlY3QgZmlsbD0iI0YxRjFGMSIgaGVpZ2h0PSIyIiBzdHlsZT0ic3Ryb2tlOiMxODE4MTg7c3Ryb2tlLXdpZHRoOjAuNTsiIHdpZHRoPSI0IiB4PSI1MzQuNSIgeT0iNTg1Ii8+PHRleHQgZmlsbD0iIzAwMDAwMCIgZm9udC1mYW1pbHk9InNhbnMtc2VyaWYiIGZvbnQtc2l6ZT0iMTQiIGxlbmd0aEFkanVzdD0ic3BhY2luZyIgdGV4dExlbmd0aD0iMzUiIHg9IjQ5Ni41IiB5PSI2MDcuMjM0NCI+UmVkaXM8L3RleHQ+PC9nPjwhLS1lbnRpdHkgUkJBQy0tPjxnIGlkPSJlbGVtX1JCQUMiPjxyZWN0IGZpbGw9IiNGMUYxRjEiIGhlaWdodD0iNDQuOTg0NCIgcng9IjIuNSIgcnk9IjIuNSIgc3R5bGU9InN0cm9rZTojMTgxODE4O3N0cm9rZS13aWR0aDowLjU7IiB3aWR0aD0iNjgiIHg9IjYwMiIgeT0iMzk2Ii8+PHJlY3QgZmlsbD0iI0YxRjFGMSIgaGVpZ2h0PSIxMCIgc3R5bGU9InN0cm9rZTojMTgxODE4O3N0cm9rZS13aWR0aDowLjU7IiB3aWR0aD0iMTUiIHg9IjY1MCIgeT0iNDAxIi8+PHJlY3QgZmlsbD0iI0YxRjFGMSIgaGVpZ2h0PSIyIiBzdHlsZT0ic3Ryb2tlOiMxODE4MTg7c3Ryb2tlLXdpZHRoOjAuNTsiIHdpZHRoPSI0IiB4PSI2NDgiIHk9IjQwMyIvPjxyZWN0IGZpbGw9IiNGMUYxRjEiIGhlaWdodD0iMiIgc3R5bGU9InN0cm9rZTojMTgxODE4O3N0cm9rZS13aWR0aDowLjU7IiB3aWR0aD0iNCIgeD0iNjQ4IiB5PSI0MDciLz48dGV4dCBmaWxsPSIjMDAwMDAwIiBmb250LWZhbWlseT0ic2Fucy1zZXJpZiIgZm9udC1zaXplPSIxNCIgbGVuZ3RoQWRqdXN0PSJzcGFjaW5nIiB0ZXh0TGVuZ3RoPSIyOCIgeD0iNjE3IiB5PSI0MjkuMjM0NCI+UkJBQzwvdGV4dD48L2c+PCEtLWVudGl0eSBBdXRoZW50aWNhdGlvbiAmIEF1dGhvcml6YXRpb24tLT48ZyBpZD0iZWxlbV9BdXRoZW50aWNhdGlvbiAmYW1wOyBBdXRob3JpemF0aW9uIj48cmVjdCBmaWxsPSIjRjFGMUYxIiBoZWlnaHQ9IjQ0Ljk4NDQiIHJ4PSIyLjUiIHJ5PSIyLjUiIHN0eWxlPSJzdHJva2U6IzE4MTgxODtzdHJva2Utd2lkdGg6MC41OyIgd2lkdGg9IjI1MCIgeD0iMzE3IiB5PSIzOTYiLz48cmVjdCBmaWxsPSIjRjFGMUYxIiBoZWlnaHQ9IjEwIiBzdHlsZT0ic3Ryb2tlOiMxODE4MTg7c3Ryb2tlLXdpZHRoOjAuNTsiIHdpZHRoPSIxNSIgeD0iNTQ3IiB5PSI0MDEiLz48cmVjdCBmaWxsPSIjRjFGMUYxIiBoZWlnaHQ9IjIiIHN0eWxlPSJzdHJva2U6IzE4MTgxODtzdHJva2Utd2lkdGg6MC41OyIgd2lkdGg9IjQiIHg9IjU0NSIgeT0iNDAzIi8+PHJlY3QgZmlsbD0iI0YxRjFGMSIgaGVpZ2h0PSIyIiBzdHlsZT0ic3Ryb2tlOiMxODE4MTg7c3Ryb2tlLXdpZHRoOjAuNTsiIHdpZHRoPSI0IiB4PSI1NDUiIHk9IjQwNyIvPjx0ZXh0IGZpbGw9IiMwMDAwMDAiIGZvbnQtZmFtaWx5PSJzYW5zLXNlcmlmIiBmb250LXNpemU9IjE0IiBsZW5ndGhBZGp1c3Q9InNwYWNpbmciIHRleHRMZW5ndGg9IjIxMCIgeD0iMzMyIiB5PSI0MjkuMjM0NCI+QXV0aGVudGljYXRpb24gJmFtcDsgQXV0aG9yaXphdGlvbjwvdGV4dD48L2c+PCEtLWxpbmsgV2ViIEJyb3dzZXIgdG8gQVBJIEdhdGV3YXktLT48ZyBpZD0ibGlua19XZWIgQnJvd3Nlcl9BUEkgR2F0ZXdheSI+PHBhdGggZD0iTTE0Nyw4OS4zIEMxNDcsMTI1Ljk1IDE0NywxOTMuNDggMTQ3LDIyOS45NiAiIGZpbGw9Im5vbmUiIGlkPSJXZWIgQnJvd3Nlci10by1BUEkgR2F0ZXdheSIgc3R5bGU9InN0cm9rZTojMTgxODE4O3N0cm9rZS13aWR0aDoxLjA7Ii8+PHBvbHlnb24gZmlsbD0iIzE4MTgxOCIgcG9pbnRzPSIxNDcsMjM1Ljk2LDE1MSwyMjYuOTYsMTQ3LDIzMC45NiwxNDMsMjI2Ljk2LDE0NywyMzUuOTYiIHN0eWxlPSJzdHJva2U6IzE4MTgxODtzdHJva2Utd2lkdGg6MS4wOyIvPjx0ZXh0IGZpbGw9IiMwMDAwMDAiIGZvbnQtZmFtaWx5PSJzYW5zLXNlcmlmIiBmb250LXNpemU9IjEzIiBsZW5ndGhBZGp1c3Q9InNwYWNpbmciIHRleHRMZW5ndGg9Ijg4IiB4PSIxNDgiIHk9IjEzNC4yODkxIj5IVFRQUyBSZXF1ZXN0PC90ZXh0PjwvZz48IS0tbGluayBBUEkgR2F0ZXdheSB0byBEYXNoYm9hcmQgU2VydmljZS0tPjxnIGlkPSJsaW5rX0FQSSBHYXRld2F5X0Rhc2hib2FyZCBTZXJ2aWNlIj48cGF0aCBkPSJNMTM1LjQ0LDI4MS4xNyBDMTMxLjI3LDI5MC4xNCAxMjcuMDksMzAwLjgxIDEyNSwzMTEgQzExOC45OCwzNDAuNDEgMTI2Ljc0NzQsMzY4Ljc4MSAxMzUuMTQ3NCwzOTAuMjkxICIgZmlsbD0ibm9uZSIgaWQ9IkFQSSBHYXRld2F5LXRvLURhc2hib2FyZCBTZXJ2aWNlIiBzdHlsZT0ic3Ryb2tlOiMxODE4MTg7c3Ryb2tlLXdpZHRoOjEuMDsiLz48cG9seWdvbiBmaWxsPSIjMTgxODE4IiBwb2ludHM9IjEzNy4zMywzOTUuODgsMTM3Ljc4MjEsMzg2LjA0MTUsMTM1LjUxMTIsMzkxLjIyMjUsMTMwLjMzMDIsMzg4Ljk1MTYsMTM3LjMzLDM5NS44OCIgc3R5bGU9InN0cm9rZTojMTgxODE4O3N0cm9rZS13aWR0aDoxLjA7Ii8+PHRleHQgZmlsbD0iIzAwMDAwMCIgZm9udC1mYW1pbHk9InNhbnMtc2VyaWYiIGZvbnQtc2l6ZT0iMTMiIGxlbmd0aEFkanVzdD0ic3BhY2luZyIgdGV4dExlbmd0aD0iMTA0IiB4PSIxMjYiIHk9IjMyNC4yODkxIj5Qcm9jZXNzIFJlcXVlc3Q8L3RleHQ+PC9nPjwhLS1saW5rIERhc2hib2FyZCBTZXJ2aWNlIHRvIERhdGFiYXNlIENsdXN0ZXItLT48ZyBpZD0ibGlua19EYXNoYm9hcmQgU2VydmljZV9EYXRhYmFzZSBDbHVzdGVyIj48cGF0aCBkPSJNMTM0LjAxLDQ0MS4yNCBDMTIzLjU1LDQ1OS41NyAxMDkuMTMsNDg2Ljc2IDEwMCw1MTIgQzk4LjQzMjUsNTE2LjMzMzggOTYuOTY2MSw1MjAuODQyMyA5NS41OTkzLDUyNS40MTk5IEM5NS40Mjg0LDUyNS45OTIxIDk1LjI1OTEsNTI2LjU2NTMgOTUuMDkxNCw1MjcuMTM5NSBDOTUuMDQ5NSw1MjcuMjgzIDk2LjY4MTksNTIxLjY2NSA5Ni42NDAyLDUyMS44MDg2ICIgZmlsbD0ibm9uZSIgaWQ9IkRhc2hib2FyZCBTZXJ2aWNlLXRvLURhdGFiYXNlIENsdXN0ZXIiIHN0eWxlPSJzdHJva2U6IzE4MTgxODtzdHJva2Utd2lkdGg6MS4wOyIvPjxwb2x5Z29uIGZpbGw9IiMxODE4MTgiIHBvaW50cz0iOTQuOTY1OSw1MjcuNTcwMiwxMDEuMzE4NSw1MjAuMDQ0LDk2LjM2MTEsNTIyLjc2ODksOTMuNjM2Myw1MTcuODExNiw5NC45NjU5LDUyNy41NzAyIiBzdHlsZT0ic3Ryb2tlOiMxODE4MTg7c3Ryb2tlLXdpZHRoOjEuMDsiLz48dGV4dCBmaWxsPSIjMDAwMDAwIiBmb250LWZhbWlseT0ic2Fucy1zZXJpZiIgZm9udC1zaXplPSIxMyIgbGVuZ3RoQWRqdXN0PSJzcGFjaW5nIiB0ZXh0TGVuZ3RoPSIxMDkiIHg9IjEwOSIgeT0iNTAyLjI4OTEiPkZldGNoL1N0b3JlIERhdGE8L3RleHQ+PC9nPjwhLS1saW5rIERhc2hib2FyZCBTZXJ2aWNlIHRvIENhY2hlIFNlcnZlci0tPjxnIGlkPSJsaW5rX0Rhc2hib2FyZCBTZXJ2aWNlX0NhY2hlIFNlcnZlciI+PHBhdGggZD0iTTE4My44Myw0NDEuMTQgQzIwNi44Nyw0NTQuMDEgMjM3LjQ5LDQ2OS45NCAyNjYsNDgxIEMzMTUuMzUsNTAwLjE1IDMzNy45Nyw0ODEuMTcgMzgxLDUxMiBDMzk4LjU5NSw1MjQuNjA1IDQxMi4yODI1LDU0NC41OSA0MjEuNzIsNTYxLjg0NzUgQzQyNC4wNzk0LDU2Ni4xNjE5IDQyNi4xNzMxLDU3MC4zMDU4IDQyNy45OTU5LDU3NC4xMjEzIEM0MjguMjIzNyw1NzQuNTk4MiA0MjguNDQ3NCw1NzUuMDcgNDI4LjY2NjcsNTc1LjUzNjQgQzQyOC43NzY0LDU3NS43Njk2IDQyNi4zNDcyLDU3MC41NjQ2IDQyNi40NTQ3LDU3MC43OTUgIiBmaWxsPSJub25lIiBpZD0iRGFzaGJvYXJkIFNlcnZpY2UtdG8tQ2FjaGUgU2VydmVyIiBzdHlsZT0ic3Ryb2tlOiMxODE4MTg7c3Ryb2tlLXdpZHRoOjEuMDsiLz48cG9seWdvbiBmaWxsPSIjMTgxODE4IiBwb2ludHM9IjQyOC45OTI2LDU3Ni4yMzE4LDQyOC44MTAzLDU2Ni4zODQ3LDQyNi44Nzc3LDU3MS43MDExLDQyMS41NjEyLDU2OS43Njg1LDQyOC45OTI2LDU3Ni4yMzE4IiBzdHlsZT0ic3Ryb2tlOiMxODE4MTg7c3Ryb2tlLXdpZHRoOjEuMDsiLz48dGV4dCBmaWxsPSIjMDAwMDAwIiBmb250LWZhbWlseT0ic2Fucy1zZXJpZiIgZm9udC1zaXplPSIxMyIgbGVuZ3RoQWRqdXN0PSJzcGFjaW5nIiB0ZXh0TGVuZ3RoPSIxMzkiIHg9IjM2NyIgeT0iNTAyLjI4OTEiPkNhY2hlIERhc2hib2FyZCBEYXRhPC90ZXh0PjwvZz48IS0tbGluayBBUEkgR2F0ZXdheSB0byBTZWN1cml0eSBTZXJ2aWNlLS0+PGcgaWQ9ImxpbmtfQVBJIEdhdGV3YXlfU2VjdXJpdHkgU2VydmljZSI+PHBhdGggZD0iTTE5Ni4xOCwyODEuMTIgQzIxMC4wNiwyODkgMjI0LjI4LDI5OC45OCAyMzUsMzExIEMyNTEuOTUsMzMwIDI2My42LDM1Ni4wOTc1IDI3MS4wNjEzLDM3Ny43MDI1IEMyNzEuOTkzOSwzODAuNDAzMSAyNzIuODYxMSwzODMuMDMzNiAyNzMuNjY1LDM4NS41NzEyIEMyNzMuNzY1NSwzODUuODg4NCAyNzIuMDcwMiwzODAuNDc4OCAyNzIuMTY4NywzODAuNzkzMSAiIGZpbGw9Im5vbmUiIGlkPSJBUEkgR2F0ZXdheS10by1TZWN1cml0eSBTZXJ2aWNlIiBzdHlsZT0ic3Ryb2tlOiMxODE4MTg7c3Ryb2tlLXdpZHRoOjEuMDsiLz48cG9seWdvbiBmaWxsPSIjMTgxODE4IiBwb2ludHM9IjI3My45NjM2LDM4Ni41MTg0LDI3NS4wODgxLDM3Ni43MzM5LDI3Mi40Njc4LDM4MS43NDczLDI2Ny40NTQ0LDM3OS4xMjcsMjczLjk2MzYsMzg2LjUxODQiIHN0eWxlPSJzdHJva2U6IzE4MTgxODtzdHJva2Utd2lkdGg6MS4wOyIvPjx0ZXh0IGZpbGw9IiMwMDAwMDAiIGZvbnQtZmFtaWx5PSJzYW5zLXNlcmlmIiBmb250LXNpemU9IjEzIiBsZW5ndGhBZGp1c3Q9InNwYWNpbmciIHRleHRMZW5ndGg9IjExNSIgeD0iMjQ3IiB5PSIzMjQuMjg5MSI+QXV0aGVudGljYXRlIFVzZXI8L3RleHQ+PC9nPjwhLS1TUkM9W1RQOG5SeThtNDhOdF84ZUpHcFZLZFE0STJNZ0JyMjRiZ0pmSzMxVmRJWW1YTXhxeFdzWjVWd3lYMllJYXpNUV96cHNWZC1ueUpKMXY0czlPcUN1UWNpMUYwZDV6bDVDNUFWanpiRFI5Q0tkU3NQYmpWUVhYd0p1UEhKYU8zTm4xTWFWUE1CVUhyMkZOSzEzbFkzbHo3QmowUVFnQjYyelNOeEx2bGVHZExEaFplSnF6emQ4Tmc1WVg0NkpSODdnSmNkbEgzTEZuLWpBQm9yMDROU3F1M2lsR0RGSk5VMmtnaE9wejFQZDBMV19UcTRDY2RNVnpMbUhqb0FhcmdET3hrOEZKV01WeFZUdnRzUjdIR1NLbWRKdUM2dloxU3JkYzFRcGVBdjFlQ1gxUi14WkM2VUppM09iU2lSNmZXdVU1SGxRSHIzSnRYTmVjRUNkX21fcTI4elhraC1PTTdXenlzc0Q0VXRLSGQzeFlCbTAwXS0tPjwvZz48L3N2Zz4=;" vertex="1" parent="1">
            <mxGeometry x="243.44" y="1910" width="743" height="692" as="geometry" />
          </mxCell>
        </UserObject>
        <mxCell id="P3c6qDh03aw6tttAvGT_-13" value="Deployment Diagram" style="text;html=1;align=center;verticalAlign=middle;whiteSpace=wrap;rounded=0;" vertex="1" parent="1">
          <mxGeometry x="560" y="1880" width="160" height="30" as="geometry" />
        </mxCell>
      </root>
    </mxGraphModel>
  </diagram>
</mxfile>
